<svg xmlns="http://www.w3.org/2000/svg" xmlns:xlink="http://www.w3.org/1999/xlink" xmlns:lucid="lucid" width="1295.11" height="360"><g transform="translate(-44.88888888886959 -265.3333333332557)" lucid:page-tab-id="0_0"><path d="M402.3 288.93a8 8 0 0 1 9.6 0l93.52 70.14a4.5 4.5 0 0 1 0 7.2l-93.5 70.13a8 8 0 0 1-9.6 0l-93.52-70.13a4.5 4.5 0 0 1 0-7.2z" stroke="#4c535d" fill="#edf5ff"/><use xlink:href="#a" transform="matrix(1,0,0,1,308.99999999996123,290.3333333332945) translate(42.79512345679015 64.06597222222221)"/><use xlink:href="#b" transform="matrix(1,0,0,1,308.99999999996123,290.3333333332945) translate(118.69635802469135 64.06597222222221)"/><use xlink:href="#c" transform="matrix(1,0,0,1,308.99999999996123,290.3333333332945) translate(38.30746913580249 85.39930555555554)"/><path d="M595.56 564.83v1l-134.14-.05v-1zM407.6 559.3l.08.9.2.83.33.8.46.74.56.65.66.56.73.45.8.33.83.2h18.57v1h-18.7l-1-.24-.94-.4-.87-.53-.8-.67-.65-.78-.53-.87-.4-.94-.23-1-.1-1V439h1z" stroke="#4c535d" stroke-width=".05" fill="#4c535d"/><path d="M407.1 438.5l.5-.03v.54h-1v-.53z" fill="#4c535d"/><path d="M407.1 438.48l.54-.04v.6h-1.05v-.6zm-.46.5h.95v-.48l-.5.03-.46-.03z" stroke="#4c535d" stroke-width=".05" fill="#4c535d"/><path d="M610.33 565.33l-14.27 4.64v-9.27z" fill="#4c535d"/><path d="M611.94 565.33l-16.38 5.33V560zm-15.38 3.95l12.15-3.95-12.14-3.94z" stroke="#4c535d" stroke-width=".05" fill="#4c535d"/><use xlink:href="#d" transform="matrix(1,0,0,1,430.80282194759565,554.6666666665502) translate(0 14.222222222222223)"/><path d="M537.98 363.17h-29.76v-1h29.76zm37.47 0h-13.87v-1h13.87z" stroke="#4c535d" stroke-width=".05" fill="#4c535d"/><path d="M508.24 363.17h-.56l.04-.5-.04-.5h.56z" fill="#4c535d"/><path d="M508.26 363.2h-.6l.04-.53-.05-.53h.6zm-.55-1l.05.47-.04.47h.5v-.95z" stroke="#4c535d" stroke-width=".05" fill="#4c535d"/><path d="M590.2 362.67l-14.25 4.63v-9.27z" fill="#4c535d"/><path d="M591.83 362.67L575.45 368v-10.66zm-15.38 3.94l12.15-3.93-12.15-3.95z" stroke="#4c535d" stroke-width=".05" fill="#4c535d"/><use xlink:href="#e" transform="matrix(1,0,0,1,537.9753084964408,352.0000000362009) translate(0 14.222222222222223)"/><path d="M687.64 288.93a8 8 0 0 1 9.6 0l93.52 70.14a4.5 4.5 0 0 1 0 7.2l-93.52 70.13a8 8 0 0 1-9.6 0l-93.5-70.13a4.5 4.5 0 0 1 0-7.2z" stroke="#4c535d" fill="#edf5ff"/><use xlink:href="#f" transform="matrix(1,0,0,1,594.3333333332752,290.3333333332557) translate(50.15314814814817 50.472222222222214)"/><use xlink:href="#g" transform="matrix(1,0,0,1,594.3333333332752,290.3333333332557) translate(130.10376543209873 50.472222222222214)"/><use xlink:href="#h" transform="matrix(1,0,0,1,594.3333333332752,290.3333333332557) translate(32.406234567901265 71.80555555555554)"/><use xlink:href="#i" transform="matrix(1,0,0,1,594.3333333332752,290.3333333332557) translate(122.18401234567901 71.80555555555554)"/><use xlink:href="#g" transform="matrix(1,0,0,1,594.3333333332752,290.3333333332557) translate(148.85067901234567 71.80555555555554)"/><use xlink:href="#j" transform="matrix(1,0,0,1,594.3333333332752,290.3333333332557) translate(78.27660493827162 93.13888888888887)"/><path d="M972.98 288.93a8 8 0 0 1 9.6 0l93.5 70.14a4.5 4.5 0 0 1 0 7.2l-93.5 70.13a8 8 0 0 1-9.6 0l-93.5-70.13a4.5 4.5 0 0 1 0-7.2z" stroke="#4c535d" fill="#edf5ff"/><use xlink:href="#k" transform="matrix(1,0,0,1,879.6666666665891,290.3333333332557) translate(52.64697530864199 44.23222222222222)"/><use xlink:href="#l" transform="matrix(1,0,0,1,879.6666666665891,290.3333333332557) translate(37.29512345679015 65.56555555555555)"/><use xlink:href="#m" transform="matrix(1,0,0,1,879.6666666665891,290.3333333332557) translate(81.73956790123458 65.56555555555555)"/><use xlink:href="#g" transform="matrix(1,0,0,1,879.6666666665891,290.3333333332557) translate(143.96179012345675 65.56555555555555)"/><use xlink:href="#n" transform="matrix(1,0,0,1,879.6666666665891,290.3333333332557) translate(57.609938271604946 86.89888888888888)"/><use xlink:href="#o" transform="matrix(1,0,0,1,879.6666666665891,290.3333333332557) translate(65.41240740740741 108.2322222222222)"/><path d="M1288 322.67c17.67 0 32 17.9 32 40s-14.33 40-32 40h-96c-17.67 0-32-17.9-32-40s14.33-40 32-40z" stroke="#4c535d" fill="#ffd9d9"/><use xlink:href="#p" transform="matrix(1,0,0,1,1164.9999999999031,327.6666666665891) translate(33.08641975308642 39.65277777777778)"/><use xlink:href="#q" transform="matrix(1,0,0,1,1164.9999999999031,327.6666666665891) translate(76.23456790123457 39.65277777777778)"/><path d="M740.44 525.33c17.68 0 32 17.9 32 40s-14.32 40-32 40h-96c-17.67 0-32-17.9-32-40s14.33-40 32-40z" stroke="#4c535d" fill="#ffd9d9"/><use xlink:href="#r" transform="matrix(1,0,0,1,617.4444444443862,530.3333333332168) translate(22.65432098765433 39.65277777777778)"/><use xlink:href="#s" transform="matrix(1,0,0,1,617.4444444443862,530.3333333332168) translate(96.48148148148148 39.65277777777778)"/><path d="M823.3 363.17h-29.74v-1h29.75zm37.48 0H846.9v-1h13.88z" stroke="#4c535d" stroke-width=".05" fill="#4c535d"/><path d="M793.57 363.17H793l.06-.5-.05-.5h.57z" fill="#4c535d"/><path d="M793.6 363.2h-.62l.05-.53-.05-.53h.62zm-.56-1l.04.47-.04.47h.5v-.95z" stroke="#4c535d" stroke-width=".05" fill="#4c535d"/><path d="M875.55 362.67l-14.27 4.63v-9.27z" fill="#4c535d"/><path d="M877.16 362.67L860.78 368v-10.66zm-15.38 3.94l12.15-3.93-12.15-3.95z" stroke="#4c535d" stroke-width=".05" fill="#4c535d"/><use xlink:href="#e" transform="matrix(1,0,0,1,823.3086418263823,352.0000000724407) translate(0 14.222222222222223)"/><path d="M1107.14 363.17h-28.25v-1h28.24zm35.98 0h-12.37v-1h12.37z" stroke="#4c535d" stroke-width=".05" fill="#4c535d"/><path d="M1078.9 363.17h-.56l.05-.5-.06-.5h.56z" fill="#4c535d"/><path d="M1078.93 363.2h-.6l.04-.53-.05-.53h.6zm-.56-1l.05.47-.05.47h.5v-.95z" stroke="#4c535d" stroke-width=".05" fill="#4c535d"/><path d="M1157.88 362.67l-14.26 4.63v-9.27z" fill="#4c535d"/><path d="M1159.5 362.67l-16.38 5.32v-10.66zm-15.38 3.94l12.14-3.93-12.14-3.95z" stroke="#4c535d" stroke-width=".05" fill="#4c535d"/><use xlink:href="#e" transform="matrix(1,0,0,1,1107.1428771147205,352.0000000724407) translate(0 14.222222222222223)"/><path d="M692.94 508.45h-1v-16.12h1zm0-37.45h-1v-32h1z" stroke="#4c535d" stroke-width=".05" fill="#4c535d"/><path d="M692.44 438.5l.5-.03v.54h-1v-.53z" fill="#4c535d"/><path d="M692.44 438.48l.53-.04v.6h-1.05v-.6zm-.47.5h.95v-.48l-.48.03-.47-.03z" stroke="#4c535d" stroke-width=".05" fill="#4c535d"/><path d="M692.44 523.22l-4.63-14.27h9.28z" fill="#4c535d"/><path d="M692.44 524.83l-5.32-16.38h10.65zm-3.94-15.38l3.94 12.15 3.95-12.15z" stroke="#4c535d" stroke-width=".05" fill="#4c535d"/><g><use xlink:href="#d" transform="matrix(1,0,0,1,677.1358024069253,471.0005083974138) translate(0 14.222222222222223)"/></g><path d="M923.47 565.78l-134.14.05v-1l134.14-.05zm54.8-6.43l-.07 1-.24 1-.4.93-.52.87-.66.78-.78.66-.87.53-.94.4-1.02.23h-18.7v-1h18.58l.82-.2.8-.33.73-.45.67-.56.56-.65.45-.74.33-.8.2-.84.08-.9V439h1z" stroke="#4c535d" stroke-width=".05" fill="#4c535d"/><path d="M977.78 438.5l.5-.03v.54h-1v-.53z" fill="#4c535d"/><path d="M977.78 438.48l.52-.04v.6h-1.05v-.6zm-.48.5h.95v-.48l-.47.03-.48-.03z" stroke="#4c535d" stroke-width=".05" fill="#4c535d"/><path d="M788.83 569.97l-14.27-4.64 14.27-4.63z" fill="#4c535d"/><path d="M789.33 570.66l-16.4-5.33 16.4-5.32zm-13.15-5.33l12.15 3.95v-7.9z" stroke="#4c535d" stroke-width=".05" fill="#4c535d"/><g><use xlink:href="#d" transform="matrix(1,0,0,1,923.4687829284267,554.6666666665502) translate(0 14.222222222222223)"/></g><path d="M192.9 322.67c17.66 0 32 17.9 32 40s-14.34 40-32 40h-96c-17.68 0-32-17.9-32-40s14.32-40 32-40z" stroke="#4c535d" fill="#e3fae3"/><g><use xlink:href="#t" transform="matrix(1,0,0,1,69.88888888886959,327.66666666662786) translate(49.75308641975309 39.65277777777778)"/></g><path d="M225.9 362.67h64.2" stroke="#4c535d" fill="none"/><path d="M225.9 363.17h-.54l.03-.5-.03-.5h.53z" stroke="#4c535d" stroke-width=".05" fill="#4c535d"/><path d="M304.88 362.67l-14.27 4.63v-9.27z" stroke="#4c535d" fill="#4c535d"/><defs><path fill="#3a414a" d="M233-177c-1 41-23 64-60 70L243 0h-38l-65-103H63V0H30v-248c88 3 205-21 203 71zM63-129c60-2 137 13 137-47 0-61-80-42-137-45v92" id="u"/><path fill="#3a414a" d="M100-194c63 0 86 42 84 106H49c0 40 14 67 53 68 26 1 43-12 49-29l28 8c-11 28-37 45-77 45C44 4 14-33 15-96c1-61 26-98 85-98zm52 81c6-60-76-77-97-28-3 7-6 17-6 28h103" id="v"/><path fill="#3a414a" d="M145-31C134-9 116 4 85 4 32 4 16-35 15-94c0-59 17-99 70-100 32-1 48 14 60 33 0-11-1-24 2-32h30l-1 268h-32zM93-21c41 0 51-33 51-76s-8-73-50-73c-40 0-46 35-46 75s5 74 45 74" id="w"/><path fill="#3a414a" d="M84 4C-5 8 30-112 23-190h32v120c0 31 7 50 39 49 72-2 45-101 50-169h31l1 190h-30c-1-10 1-25-2-33-11 22-28 36-60 37" id="x"/><path fill="#3a414a" d="M24-231v-30h32v30H24zM24 0v-190h32V0H24" id="y"/><path fill="#3a414a" d="M114-163C36-179 61-72 57 0H25l-1-190h30c1 12-1 29 2 39 6-27 23-49 58-41v29" id="z"/><path fill="#3a414a" d="M135-143c-3-34-86-38-87 0 15 53 115 12 119 90S17 21 10-45l28-5c4 36 97 45 98 0-10-56-113-15-118-90-4-57 82-63 122-42 12 7 21 19 24 35" id="A"/><g id="a"><use transform="matrix(0.0493827160493827,0,0,0.0493827160493827,0,0)" xlink:href="#u"/><use transform="matrix(0.0493827160493827,0,0,0.0493827160493827,12.79012345679012,0)" xlink:href="#v"/><use transform="matrix(0.0493827160493827,0,0,0.0493827160493827,22.666666666666657,0)" xlink:href="#w"/><use transform="matrix(0.0493827160493827,0,0,0.0493827160493827,32.543209876543195,0)" xlink:href="#x"/><use transform="matrix(0.0493827160493827,0,0,0.0493827160493827,42.41975308641973,0)" xlink:href="#y"/><use transform="matrix(0.0493827160493827,0,0,0.0493827160493827,46.320987654320966,0)" xlink:href="#z"/><use transform="matrix(0.0493827160493827,0,0,0.0493827160493827,52.1975308641975,0)" xlink:href="#v"/><use transform="matrix(0.0493827160493827,0,0,0.0493827160493827,62.07407407407404,0)" xlink:href="#A"/></g><g id="b"><use transform="matrix(0.0493827160493827,0,0,0.0493827160493827,0,0)" xlink:href="#x"/><use transform="matrix(0.0493827160493827,0,0,0.0493827160493827,9.876543209876539,0)" xlink:href="#A"/><use transform="matrix(0.0493827160493827,0,0,0.0493827160493827,18.765432098765423,0)" xlink:href="#v"/><use transform="matrix(0.0493827160493827,0,0,0.0493827160493827,28.64197530864196,0)" xlink:href="#z"/></g><path fill="#3a414a" d="M141-36C126-15 110 5 73 4 37 3 15-17 15-53c-1-64 63-63 125-63 3-35-9-54-41-54-24 1-41 7-42 31l-33-3c5-37 33-52 76-52 45 0 72 20 72 64v82c-1 20 7 32 28 27v20c-31 9-61-2-59-35zM48-53c0 20 12 33 32 33 41-3 63-29 60-74-43 2-92-5-92 41" id="B"/><path fill="#3a414a" d="M59-47c-2 24 18 29 38 22v24C64 9 27 4 27-40v-127H5v-23h24l9-43h21v43h35v23H59v120" id="C"/><path fill="#3a414a" d="M106-169C34-169 62-67 57 0H25v-261h32l-1 103c12-21 28-36 61-36 89 0 53 116 60 194h-32v-121c2-32-8-49-39-48" id="D"/><path fill="#3a414a" d="M117-194c89-4 53 116 60 194h-32v-121c0-31-8-49-39-48C34-167 62-67 57 0H25l-1-190h30c1 10-1 24 2 32 11-22 29-35 61-36" id="E"/><path fill="#3a414a" d="M96-169c-40 0-48 33-48 73s9 75 48 75c24 0 41-14 43-38l32 2c-6 37-31 61-74 61-59 0-76-41-82-99-10-93 101-131 147-64 4 7 5 14 7 22l-32 3c-4-21-16-35-41-35" id="F"/><path fill="#3a414a" d="M100-194c62-1 85 37 85 99 1 63-27 99-86 99S16-35 15-95c0-66 28-99 85-99zM99-20c44 1 53-31 53-75 0-43-8-75-51-75s-53 32-53 75 10 74 51 75" id="G"/><path fill="#3a414a" d="M103-251c84 0 111 97 45 133-19 10-37 24-39 52H78c0-63 77-55 77-114 0-30-21-42-52-43-32 0-53 17-56 46l-32-2c7-45 34-72 88-72zM77 0v-35h34V0H77" id="H"/><g id="c"><use transform="matrix(0.0493827160493827,0,0,0.0493827160493827,0,0)" xlink:href="#B"/><use transform="matrix(0.0493827160493827,0,0,0.0493827160493827,9.876543209876539,0)" xlink:href="#x"/><use transform="matrix(0.0493827160493827,0,0,0.0493827160493827,19.753086419753078,0)" xlink:href="#C"/><use transform="matrix(0.0493827160493827,0,0,0.0493827160493827,24.691358024691347,0)" xlink:href="#D"/><use transform="matrix(0.0493827160493827,0,0,0.0493827160493827,34.567901234567884,0)" xlink:href="#v"/><use transform="matrix(0.0493827160493827,0,0,0.0493827160493827,44.44444444444442,0)" xlink:href="#E"/><use transform="matrix(0.0493827160493827,0,0,0.0493827160493827,54.32098765432096,0)" xlink:href="#C"/><use transform="matrix(0.0493827160493827,0,0,0.0493827160493827,59.25925925925923,0)" xlink:href="#y"/><use transform="matrix(0.0493827160493827,0,0,0.0493827160493827,63.16049382716046,0)" xlink:href="#F"/><use transform="matrix(0.0493827160493827,0,0,0.0493827160493827,72.04938271604935,0)" xlink:href="#B"/><use transform="matrix(0.0493827160493827,0,0,0.0493827160493827,81.9259259259259,0)" xlink:href="#C"/><use transform="matrix(0.0493827160493827,0,0,0.0493827160493827,86.86419753086416,0)" xlink:href="#y"/><use transform="matrix(0.0493827160493827,0,0,0.0493827160493827,90.76543209876539,0)" xlink:href="#G"/><use transform="matrix(0.0493827160493827,0,0,0.0493827160493827,100.64197530864193,0)" xlink:href="#E"/><use transform="matrix(0.0493827160493827,0,0,0.0493827160493827,110.51851851851848,0)" xlink:href="#H"/></g><path fill="#333" d="M146-102V0H94v-102L6-248h54l60 105 60-105h54" id="I"/><path fill="#333" d="M185-48c-13 30-37 53-82 52C43 2 14-33 14-96s30-98 90-98c62 0 83 45 84 108H66c0 31 8 55 39 56 18 0 30-7 34-22zm-45-69c5-46-57-63-70-21-2 6-4 13-4 21h74" id="J"/><path fill="#333" d="M137-138c1-29-70-34-71-4 15 46 118 7 119 86 1 83-164 76-172 9l43-7c4 19 20 25 44 25 33 8 57-30 24-41C81-84 22-81 20-136c-2-80 154-74 161-7" id="K"/><g id="d"><use transform="matrix(0.04938271604938272,0,0,0.04938271604938272,0,0)" xlink:href="#I"/><use transform="matrix(0.04938271604938272,0,0,0.04938271604938272,10.864197530864198,0)" xlink:href="#J"/><use transform="matrix(0.04938271604938272,0,0,0.04938271604938272,20.74074074074074,0)" xlink:href="#K"/></g><path fill="#333" d="M175 0L67-191c6 58 2 128 3 191H24v-248h59L193-55c-6-58-2-129-3-193h46V0h-61" id="L"/><path fill="#333" d="M110-194c64 0 96 36 96 99 0 64-35 99-97 99-61 0-95-36-95-99 0-62 34-99 96-99zm-1 164c35 0 45-28 45-65 0-40-10-65-43-65-34 0-45 26-45 65 0 36 10 65 43 65" id="M"/><g id="e"><use transform="matrix(0.04938271604938272,0,0,0.04938271604938272,0,0)" xlink:href="#L"/><use transform="matrix(0.04938271604938272,0,0,0.04938271604938272,12.790123456790125,0)" xlink:href="#M"/></g><path fill="#3a414a" d="M30-248c87 1 191-15 191 75 0 78-77 80-158 76V0H30v-248zm33 125c57 0 124 11 124-50 0-59-68-47-124-48v98" id="N"/><path fill="#3a414a" d="M85-194c31 0 48 13 60 33l-1-100h32l1 261h-30c-2-10 0-23-3-31C134-8 116 4 85 4 32 4 16-35 15-94c0-66 23-100 70-100zm9 24c-40 0-46 34-46 75 0 40 6 74 45 74 42 0 51-32 51-76 0-42-9-74-50-73" id="O"/><g id="f"><use transform="matrix(0.0493827160493827,0,0,0.0493827160493827,0,0)" xlink:href="#N"/><use transform="matrix(0.0493827160493827,0,0,0.0493827160493827,11.851851851851848,0)" xlink:href="#z"/><use transform="matrix(0.0493827160493827,0,0,0.0493827160493827,17.72839506172839,0)" xlink:href="#G"/><use transform="matrix(0.0493827160493827,0,0,0.0493827160493827,27.60493827160493,0)" xlink:href="#O"/><use transform="matrix(0.0493827160493827,0,0,0.0493827160493827,37.48148148148147,0)" xlink:href="#x"/><use transform="matrix(0.0493827160493827,0,0,0.0493827160493827,47.358024691358004,0)" xlink:href="#F"/><use transform="matrix(0.0493827160493827,0,0,0.0493827160493827,56.2469135802469,0)" xlink:href="#v"/><use transform="matrix(0.0493827160493827,0,0,0.0493827160493827,66.12345679012343,0)" xlink:href="#A"/></g><g id="g"><use transform="matrix(0.0493827160493827,0,0,0.0493827160493827,0,0)" xlink:href="#G"/><use transform="matrix(0.0493827160493827,0,0,0.0493827160493827,9.876543209876539,0)" xlink:href="#z"/></g><path fill="#3a414a" d="M212-179c-10-28-35-45-73-45-59 0-87 40-87 99 0 60 29 101 89 101 43 0 62-24 78-52l27 14C228-24 195 4 139 4 59 4 22-46 18-125c-6-104 99-153 187-111 19 9 31 26 39 46" id="P"/><path fill="#3a414a" d="M210-169c-67 3-38 105-44 169h-31v-121c0-29-5-50-35-48C34-165 62-65 56 0H25l-1-190h30c1 10-1 24 2 32 10-44 99-50 107 0 11-21 27-35 58-36 85-2 47 119 55 194h-31v-121c0-29-5-49-35-48" id="Q"/><g id="h"><use transform="matrix(0.0493827160493827,0,0,0.0493827160493827,0,0)" xlink:href="#P"/><use transform="matrix(0.0493827160493827,0,0,0.0493827160493827,12.79012345679012,0)" xlink:href="#G"/><use transform="matrix(0.0493827160493827,0,0,0.0493827160493827,22.666666666666657,0)" xlink:href="#E"/><use transform="matrix(0.0493827160493827,0,0,0.0493827160493827,32.543209876543195,0)" xlink:href="#A"/><use transform="matrix(0.0493827160493827,0,0,0.0493827160493827,41.43209876543208,0)" xlink:href="#x"/><use transform="matrix(0.0493827160493827,0,0,0.0493827160493827,51.30864197530861,0)" xlink:href="#Q"/><use transform="matrix(0.0493827160493827,0,0,0.0493827160493827,66.07407407407405,0)" xlink:href="#v"/><use transform="matrix(0.0493827160493827,0,0,0.0493827160493827,75.95061728395059,0)" xlink:href="#A"/></g><path fill="#3a414a" d="M33 0v-248h34V0H33" id="R"/><g id="i"><use transform="matrix(0.0493827160493827,0,0,0.0493827160493827,0,0)" xlink:href="#N"/><use transform="matrix(0.0493827160493827,0,0,0.0493827160493827,11.851851851851848,0)" xlink:href="#R"/><use transform="matrix(0.0493827160493827,0,0,0.0493827160493827,16.790123456790116,0)" xlink:href="#R"/></g><path fill="#3a414a" d="M197 0v-115H63V0H30v-248h33v105h134v-105h34V0h-34" id="S"/><g id="j"><use transform="matrix(0.0493827160493827,0,0,0.0493827160493827,0,0)" xlink:href="#N"/><use transform="matrix(0.0493827160493827,0,0,0.0493827160493827,11.851851851851848,0)" xlink:href="#S"/><use transform="matrix(0.0493827160493827,0,0,0.0493827160493827,24.641975308641968,0)" xlink:href="#R"/><use transform="matrix(0.0493827160493827,0,0,0.0493827160493827,29.580246913580236,0)" xlink:href="#H"/></g><g id="k"><use transform="matrix(0.0493827160493827,0,0,0.0493827160493827,0,0)" xlink:href="#P"/><use transform="matrix(0.0493827160493827,0,0,0.0493827160493827,12.79012345679012,0)" xlink:href="#G"/><use transform="matrix(0.0493827160493827,0,0,0.0493827160493827,22.666666666666657,0)" xlink:href="#E"/><use transform="matrix(0.0493827160493827,0,0,0.0493827160493827,32.543209876543195,0)" xlink:href="#A"/><use transform="matrix(0.0493827160493827,0,0,0.0493827160493827,41.43209876543208,0)" xlink:href="#x"/><use transform="matrix(0.0493827160493827,0,0,0.0493827160493827,51.30864197530861,0)" xlink:href="#Q"/><use transform="matrix(0.0493827160493827,0,0,0.0493827160493827,66.07407407407405,0)" xlink:href="#v"/><use transform="matrix(0.0493827160493827,0,0,0.0493827160493827,75.95061728395059,0)" xlink:href="#z"/><use transform="matrix(0.0493827160493827,0,0,0.0493827160493827,81.82716049382714,0)" xlink:href="#A"/></g><g id="l"><use transform="matrix(0.0493827160493827,0,0,0.0493827160493827,0,0)" xlink:href="#E"/><use transform="matrix(0.0493827160493827,0,0,0.0493827160493827,9.876543209876539,0)" xlink:href="#v"/><use transform="matrix(0.0493827160493827,0,0,0.0493827160493827,19.753086419753078,0)" xlink:href="#v"/><use transform="matrix(0.0493827160493827,0,0,0.0493827160493827,29.62962962962962,0)" xlink:href="#O"/></g><path fill="#3a414a" d="M115-194c55 1 70 41 70 98S169 2 115 4C84 4 66-9 55-30l1 105H24l-1-265h31l2 30c10-21 28-34 59-34zm-8 174c40 0 45-34 45-75s-6-73-45-74c-42 0-51 32-51 76 0 43 10 73 51 73" id="T"/><g id="m"><use transform="matrix(0.0493827160493827,0,0,0.0493827160493827,0,0)" xlink:href="#A"/><use transform="matrix(0.0493827160493827,0,0,0.0493827160493827,8.888888888888886,0)" xlink:href="#F"/><use transform="matrix(0.0493827160493827,0,0,0.0493827160493827,17.77777777777777,0)" xlink:href="#G"/><use transform="matrix(0.0493827160493827,0,0,0.0493827160493827,27.654320987654305,0)" xlink:href="#T"/><use transform="matrix(0.0493827160493827,0,0,0.0493827160493827,37.530864197530846,0)" xlink:href="#v"/><use transform="matrix(0.0493827160493827,0,0,0.0493827160493827,47.40740740740738,0)" xlink:href="#O"/></g><path fill="#3a414a" d="M16-82v-28h88v28H16" id="U"/><g id="n"><use transform="matrix(0.0493827160493827,0,0,0.0493827160493827,0,0)" xlink:href="#A"/><use transform="matrix(0.0493827160493827,0,0,0.0493827160493827,8.888888888888886,0)" xlink:href="#D"/><use transform="matrix(0.0493827160493827,0,0,0.0493827160493827,18.765432098765423,0)" xlink:href="#G"/><use transform="matrix(0.0493827160493827,0,0,0.0493827160493827,28.64197530864196,0)" xlink:href="#z"/><use transform="matrix(0.0493827160493827,0,0,0.0493827160493827,34.518518518518505,0)" xlink:href="#C"/><use transform="matrix(0.0493827160493827,0,0,0.0493827160493827,39.45679012345678,0)" xlink:href="#U"/><use transform="matrix(0.0493827160493827,0,0,0.0493827160493827,45.333333333333314,0)" xlink:href="#C"/><use transform="matrix(0.0493827160493827,0,0,0.0493827160493827,50.27160493827159,0)" xlink:href="#v"/><use transform="matrix(0.0493827160493827,0,0,0.0493827160493827,60.14814814814813,0)" xlink:href="#z"/><use transform="matrix(0.0493827160493827,0,0,0.0493827160493827,66.02469135802467,0)" xlink:href="#Q"/></g><g id="o"><use transform="matrix(0.0493827160493827,0,0,0.0493827160493827,0,0)" xlink:href="#B"/><use transform="matrix(0.0493827160493827,0,0,0.0493827160493827,9.876543209876539,0)" xlink:href="#F"/><use transform="matrix(0.0493827160493827,0,0,0.0493827160493827,18.765432098765423,0)" xlink:href="#F"/><use transform="matrix(0.0493827160493827,0,0,0.0493827160493827,27.654320987654305,0)" xlink:href="#v"/><use transform="matrix(0.0493827160493827,0,0,0.0493827160493827,37.530864197530846,0)" xlink:href="#A"/><use transform="matrix(0.0493827160493827,0,0,0.0493827160493827,46.41975308641973,0)" xlink:href="#A"/><use transform="matrix(0.0493827160493827,0,0,0.0493827160493827,55.30864197530861,0)" xlink:href="#H"/></g><path fill="#3a414a" d="M199 0l-22-63H83L61 0H9l90-248h61L250 0h-51zm-33-102l-36-108c-10 38-24 72-36 108h72" id="V"/><path fill="#3a414a" d="M24-248c93 1 206-16 204 79-1 75-69 88-152 82V0H24v-248zm52 121c47 0 100 7 100-41 0-47-54-39-100-39v80" id="W"/><path fill="#3a414a" d="M24 0v-248h52V0H24" id="X"/><g id="p"><use transform="matrix(0.06172839506172839,0,0,0.06172839506172839,0,0)" xlink:href="#V"/><use transform="matrix(0.06172839506172839,0,0,0.06172839506172839,15.987654320987653,0)" xlink:href="#W"/><use transform="matrix(0.06172839506172839,0,0,0.06172839506172839,30.80246913580247,0)" xlink:href="#X"/></g><path fill="#3a414a" d="M195 0l-88-114-31 24V0H24v-248h52v113l112-113h60L142-143 257 0h-62" id="Y"/><path fill="#3a414a" d="M185-48c-13 30-37 53-82 52C43 2 14-33 14-96s30-98 90-98c62 0 83 45 84 108H66c0 31 8 55 39 56 18 0 30-7 34-22zm-45-69c5-46-57-63-70-21-2 6-4 13-4 21h74" id="Z"/><path fill="#3a414a" d="M123 10C108 53 80 86 19 72V37c35 8 53-11 59-39L3-190h52l48 148c12-52 28-100 44-148h51" id="aa"/><g id="q"><use transform="matrix(0.06172839506172839,0,0,0.06172839506172839,0,0)" xlink:href="#Y"/><use transform="matrix(0.06172839506172839,0,0,0.06172839506172839,15.987654320987653,0)" xlink:href="#Z"/><use transform="matrix(0.06172839506172839,0,0,0.06172839506172839,28.333333333333332,0)" xlink:href="#aa"/></g><path fill="#3a414a" d="M140-251c80 0 125 45 125 126S219 4 139 4C58 4 15-44 15-125s44-126 125-126zm-1 214c52 0 73-35 73-88 0-50-21-86-72-86-52 0-73 35-73 86s22 88 72 88" id="ab"/><path fill="#3a414a" d="M85 4C-2 5 27-109 22-190h50c7 57-23 150 33 157 60-5 35-97 40-157h50l1 190h-47c-2-12 1-28-3-38-12 25-28 42-61 42" id="ac"/><path fill="#3a414a" d="M115-3C79 11 28 4 28-45v-112H4v-33h27l15-45h31v45h36v33H77v99c-1 23 16 31 38 25v30" id="ad"/><path fill="#3a414a" d="M114-157C55-157 80-60 75 0H25v-261h50l-1 109c12-26 28-41 61-42 86-1 58 113 63 194h-50c-7-57 23-157-34-157" id="ae"/><g id="r"><use transform="matrix(0.06172839506172839,0,0,0.06172839506172839,0,0)" xlink:href="#ab"/><use transform="matrix(0.06172839506172839,0,0,0.06172839506172839,17.28395061728395,0)" xlink:href="#V"/><use transform="matrix(0.06172839506172839,0,0,0.06172839506172839,33.2716049382716,0)" xlink:href="#ac"/><use transform="matrix(0.06172839506172839,0,0,0.06172839506172839,46.79012345679012,0)" xlink:href="#ad"/><use transform="matrix(0.06172839506172839,0,0,0.06172839506172839,54.1358024691358,0)" xlink:href="#ae"/></g><path fill="#3a414a" d="M182-182c0 78-84 86-111 141h115V0H12c-6-101 99-100 120-180 1-22-12-31-33-32-23 0-32 14-35 34l-49-3c5-45 32-70 84-70 51 0 83 22 83 69" id="af"/><path fill="#3a414a" d="M24 0v-54h51V0H24" id="ag"/><path fill="#3a414a" d="M101-251c68 0 84 54 84 127C185-50 166 4 99 4S15-52 14-124c-1-75 17-127 87-127zm-1 216c37-5 36-46 36-89s4-89-36-89c-39 0-36 45-36 89 0 43-3 85 36 89" id="ah"/><g id="s"><use transform="matrix(0.06172839506172839,0,0,0.06172839506172839,0,0)" xlink:href="#af"/><use transform="matrix(0.06172839506172839,0,0,0.06172839506172839,12.345679012345679,0)" xlink:href="#ag"/><use transform="matrix(0.06172839506172839,0,0,0.06172839506172839,18.51851851851852,0)" xlink:href="#ah"/></g><path fill="#3a414a" d="M169-182c-1-43-94-46-97-3 18 66 151 10 154 114 3 95-165 93-204 36-6-8-10-19-12-30l50-8c3 46 112 56 116 5-17-69-150-10-154-114-4-87 153-88 188-35 5 8 8 18 10 28" id="ai"/><path fill="#3a414a" d="M133-34C117-15 103 5 69 4 32 3 11-16 11-54c-1-60 55-63 116-61 1-26-3-47-28-47-18 1-26 9-28 27l-52-2c7-38 36-58 82-57s74 22 75 68l1 82c-1 14 12 18 25 15v27c-30 8-71 5-69-32zm-48 3c29 0 43-24 42-57-32 0-66-3-65 30 0 17 8 27 23 27" id="aj"/><path fill="#3a414a" d="M135-150c-39-12-60 13-60 57V0H25l-1-190h47c2 13-1 29 3 40 6-28 27-53 61-41v41" id="ak"/><g id="t"><use transform="matrix(0.06172839506172839,0,0,0.06172839506172839,0,0)" xlink:href="#ai"/><use transform="matrix(0.06172839506172839,0,0,0.06172839506172839,14.814814814814813,0)" xlink:href="#ad"/><use transform="matrix(0.06172839506172839,0,0,0.06172839506172839,22.160493827160494,0)" xlink:href="#aj"/><use transform="matrix(0.06172839506172839,0,0,0.06172839506172839,34.50617283950617,0)" xlink:href="#ak"/><use transform="matrix(0.06172839506172839,0,0,0.06172839506172839,43.148148148148145,0)" xlink:href="#ad"/></g></defs></g></svg>