<svg xmlns="http://www.w3.org/2000/svg" xmlns:xlink="http://www.w3.org/1999/xlink" xmlns:lucid="lucid" width="1635.48" height="1647.2"><g transform="translate(-121.79787777432787 -250.52987360872794)" lucid:page-tab-id="0_0"><path d="M376.45 454.15a6 6 0 0 1 6-6H651a6 6 0 0 1 6 6v603.15a6 6 0 0 1-6 6H382.46a6 6 0 0 1-6-6z" stroke="#000" stroke-opacity="0" stroke-width="4" fill="#fcfcca"/><path d="M1456.7 454.15a6 6 0 0 1 6-6h268.58a6 6 0 0 1 6 6v394.2a6 6 0 0 1-6 6H1462.7a6 6 0 0 1-6-6z" stroke="#000" stroke-opacity="0" stroke-width="4" fill="#fff0f0"/><path d="M247.62 274.13a8 8 0 0 1 9.6 0l101.02 75.77a4.5 4.5 0 0 1 0 7.2l-101.02 75.76a8 8 0 0 1-9.6 0L146.6 357.1a4.5 4.5 0 0 1 0-7.2z" stroke="#3a414a" fill="#edf5ff"/><use xlink:href="#a" transform="matrix(1,0,0,1,146.79787777432787,275.5298736087708) translate(31.19944444444445 69.625)"/><use xlink:href="#b" transform="matrix(1,0,0,1,146.79787777432787,275.5298736087708) translate(111.03277777777778 69.625)"/><use xlink:href="#c" transform="matrix(1,0,0,1,146.79787777432787,275.5298736087708) translate(152.03277777777777 69.625)"/><use xlink:href="#d" transform="matrix(1,0,0,1,146.79787777432787,275.5298736087708) translate(66.64388888888888 93.625)"/><path d="M785.45 274.13a8 8 0 0 1 9.6 0l101.02 75.77a4.5 4.5 0 0 1 0 7.2l-101.02 75.76a8 8 0 0 1-9.6 0L684.43 357.1a4.5 4.5 0 0 1 0-7.2z" stroke="#3a414a" fill="#edf5ff"/><use xlink:href="#a" transform="matrix(1,0,0,1,684.6275597787412,275.5298736087469) translate(57.83833333333333 55)"/><use xlink:href="#e" transform="matrix(1,0,0,1,684.6275597787412,275.5298736087469) translate(137.67166666666668 55)"/><use xlink:href="#f" transform="matrix(1,0,0,1,684.6275597787412,275.5298736087469) translate(50.004999999999995 79)"/><use xlink:href="#g" transform="matrix(1,0,0,1,684.6275597787412,275.5298736087469) translate(77.78277777777777 79)"/><use xlink:href="#h" transform="matrix(1,0,0,1,684.6275597787412,275.5298736087469) translate(68.33833333333334 103)"/><path d="M247.62 692.02a8 8 0 0 1 9.6 0l101.02 75.77a4.5 4.5 0 0 1 0 7.2l-101.02 75.75a8 8 0 0 1-9.6 0L146.6 775a4.5 4.5 0 0 1 0-7.2z" stroke="#3a414a" fill="#edf5ff"/><use xlink:href="#i" transform="matrix(1,0,0,1,146.79787777434822,693.4205040025333) translate(58.86611111111111 69.625)"/><use xlink:href="#j" transform="matrix(1,0,0,1,146.79787777434822,693.4205040025333) translate(79.97722222222222 69.625)"/><use xlink:href="#k" transform="matrix(1,0,0,1,146.79787777434822,693.4205040025333) translate(113.31055555555557 69.625)"/><use xlink:href="#l" transform="matrix(1,0,0,1,146.79787777434822,693.4205040025333) translate(53.33833333333334 93.625)"/><path d="M387.4 771.9h-26.36v-1h26.37zm37.05 0h-10.48v-1h10.48z" stroke="#3a414a" stroke-width=".05" fill="#3a414a"/><path d="M361.06 771.9h-.56l.04-.5-.04-.5h.56z" fill="#3a414a"/><path d="M361.08 771.9h-.6l.04-.5-.05-.54h.6zm-.56-1l.05.5-.05.46h.5v-.95z" stroke="#3a414a" stroke-width=".05" fill="#3a414a"/><path d="M439.22 771.4L424.95 776v-9.27z" fill="#3a414a"/><path d="M440.83 771.4l-16.38 5.3v-10.64zm-15.38 3.93l12.15-3.94-12.15-3.96z" stroke="#3a414a" stroke-width=".05" fill="#3a414a"/><use xlink:href="#m" transform="matrix(1,0,0,1,387.4103665248361,759.3864760882702) translate(0 16)"/><path d="M569.33 731.4c17.68 0 32 17.9 32 40 0 22.08-14.32 40-32 40h-96c-17.67 0-32-17.92-32-40 0-22.1 14.33-40 32-40z" stroke="#3a414a" fill="#fff7a1"/><use xlink:href="#n" transform="matrix(1,0,0,1,446.3340149691485,736.3864760878639) translate(52.77777777777778 41.02083333333333)"/><path d="M247.62 483.08a8 8 0 0 1 9.6 0l101.02 75.76a4.5 4.5 0 0 1 0 7.2L257.22 641.8a8 8 0 0 1-9.6 0L146.6 566.05a4.5 4.5 0 0 1 0-7.2z" stroke="#3a414a" fill="#edf5ff"/><use xlink:href="#i" transform="matrix(1,0,0,1,146.79787777434106,484.475188805652) translate(58.86611111111111 69.625)"/><use xlink:href="#j" transform="matrix(1,0,0,1,146.79787777434106,484.475188805652) translate(79.97722222222222 69.625)"/><use xlink:href="#k" transform="matrix(1,0,0,1,146.79787777434106,484.475188805652) translate(113.31055555555557 69.625)"/><use xlink:href="#o" transform="matrix(1,0,0,1,146.79787777434106,484.475188805652) translate(39.977222222222224 93.625)"/><path d="M387.4 562.94h-26.36v-1h26.37zm37.05 0h-10.48v-1h10.48z" stroke="#3a414a" stroke-width=".05" fill="#3a414a"/><path d="M361.06 562.94h-.56l.04-.5-.04-.5h.56z" fill="#3a414a"/><path d="M361.08 562.97h-.6l.04-.53-.05-.52h.6zm-.56-1l.05.47-.05.48h.5v-.95z" stroke="#3a414a" stroke-width=".05" fill="#3a414a"/><path d="M439.22 562.44l-14.27 4.64v-9.27z" fill="#3a414a"/><path d="M440.83 562.44l-16.38 5.32v-10.64zm-15.38 3.95l12.15-3.96-12.15-3.95z" stroke="#3a414a" stroke-width=".05" fill="#3a414a"/><use xlink:href="#m" transform="matrix(1,0,0,1,387.4103665238244,550.4411608919298) translate(0 16)"/><path d="M569.33 522.44c17.68 0 32 17.9 32 40s-14.32 40-32 40h-96c-17.67 0-32-17.9-32-40s14.33-40 32-40z" stroke="#3a414a" fill="#fff7a1"/><use xlink:href="#p" transform="matrix(1,0,0,1,446.3340149691794,527.4411609500845) translate(52.77777777777778 41.02083333333333)"/><path d="M252.92 445.97h-1v-10.5h1z" stroke="#3a414a" stroke-width=".05" fill="#3a414a"/><path d="M252.42 434.96l.5-.03v.55h-1v-.55z" fill="#3a414a"/><path d="M252.42 434.94l.52-.04v.6h-1.05v-.6zm-.48.5h.95v-.48l-.48.03-.48-.04z" stroke="#3a414a" stroke-width=".05" fill="#3a414a"/><path d="M252.42 479.36l-3.05-9.4h6.1z" fill="#3a414a"/><path d="M252.42 480.97l-3.58-11h1.05l2.52 7.77 2.52-7.77H256z" stroke="#3a414a" stroke-width=".05" fill="#3a414a"/><use xlink:href="#q" transform="matrix(1,0,0,1,235.19695163134986,445.9685032123179) translate(0 16)"/><path d="M252.92 654.9h-1v-10.5h1z" stroke="#3a414a" stroke-width=".05" fill="#3a414a"/><path d="M252.42 643.9l.5-.02v.54h-1v-.54z" fill="#3a414a"/><path d="M252.42 643.88l.52-.03v.6h-1.05v-.6zm-.48.52h.95v-.5l-.48.03-.48-.03z" stroke="#3a414a" stroke-width=".05" fill="#3a414a"/><path d="M252.42 688.3l-3.05-9.4h6.1z" fill="#3a414a"/><path d="M252.42 689.92l-3.58-11h1.05l2.52 7.76 2.52-7.77H256z" stroke="#3a414a" stroke-width=".05" fill="#3a414a"/><use xlink:href="#q" transform="matrix(1,0,0,1,235.196951631363,654.9138184091994) translate(0 16)"/><path d="M508.06 354H361.04v-1h147.02zm157.68 0H534.6v-1h131.14z" stroke="#3a414a" stroke-width=".05" fill="#3a414a"/><path d="M361.06 354h-.56l.04-.5-.04-.5h.56z" fill="#3a414a"/><path d="M361.08 354.02h-.6l.04-.52-.05-.53h.6zm-.56-1l.05.48-.05.47h.5v-.95z" stroke="#3a414a" stroke-width=".05" fill="#3a414a"/><path d="M680.5 353.5l-14.26 4.63v-9.27z" fill="#3a414a"/><path d="M682.13 353.5l-16.4 5.32v-10.65zm-15.4 3.94l12.16-3.94-12.16-3.95z" stroke="#3a414a" stroke-width=".05" fill="#3a414a"/><use xlink:href="#m" transform="matrix(1,0,0,1,508.0562369907437,341.49584569491407) translate(0 16)"/><path d="M247.62 900.97a8 8 0 0 1 9.6 0l101.02 75.76a4.5 4.5 0 0 1 0 7.2l-101.02 75.77a8 8 0 0 1-9.6 0L146.6 983.93a4.5 4.5 0 0 1 0-7.2z" stroke="#3a414a" fill="#edf5ff"/><use xlink:href="#r" transform="matrix(1,0,0,1,146.79787777434106,902.3658191994145) translate(40.00500000000001 69.625)"/><use xlink:href="#s" transform="matrix(1,0,0,1,146.79787777434106,902.3658191994145) translate(76.61611111111111 69.625)"/><use xlink:href="#t" transform="matrix(1,0,0,1,146.79787777434106,902.3658191994145) translate(119.94944444444444 69.625)"/><use xlink:href="#j" transform="matrix(1,0,0,1,146.79787777434106,902.3658191994145) translate(45.643888888888895 93.625)"/><use xlink:href="#u" transform="matrix(1,0,0,1,146.79787777434106,902.3658191994145) translate(78.97722222222222 93.625)"/><use xlink:href="#v" transform="matrix(1,0,0,1,146.79787777434106,902.3658191994145) translate(118.92166666666667 93.625)"/><path d="M569.33 940.33c17.68 0 32 17.9 32 40s-14.32 40-32 40h-96c-17.67 0-32-17.9-32-40s14.33-40 32-40z" stroke="#3a414a" fill="#fff7a1"/><use xlink:href="#w" transform="matrix(1,0,0,1,446.3340149691794,945.3317912256425) translate(52.77777777777778 41.02083333333333)"/><path d="M387.4 980.83h-26.36v-1h26.37zm37.05 0h-10.48v-1h10.48z" stroke="#3a414a" stroke-width=".05" fill="#3a414a"/><path d="M361.06 980.83h-.56l.04-.5-.04-.5h.56z" fill="#3a414a"/><path d="M361.08 980.86h-.6l.04-.53-.05-.52h.6zm-.56-1l.05.47-.05.48h.5v-.94z" stroke="#3a414a" stroke-width=".05" fill="#3a414a"/><path d="M439.2 980.33l-14.25 4.64v-9.27z" fill="#3a414a"/><path d="M440.83 980.33l-16.38 5.33V975zm-15.38 3.95l12.15-3.95-12.15-3.95z" stroke="#3a414a" stroke-width=".05" fill="#3a414a"/><use xlink:href="#m" transform="matrix(1,0,0,1,387.41036652587155,968.3317912855579) translate(0 16)"/><path d="M252.92 863.86h-1v-10.5h1z" stroke="#3a414a" stroke-width=".05" fill="#3a414a"/><path d="M252.42 852.85l.5-.03v.55h-1v-.55z" fill="#3a414a"/><path d="M252.42 852.83l.52-.04v.6h-1.05v-.6zm-.48.5h.95v-.48l-.48.03-.48-.03z" stroke="#3a414a" stroke-width=".05" fill="#3a414a"/><path d="M252.42 897.25l-3.05-9.4h6.1z" fill="#3a414a"/><path d="M252.42 898.86l-3.58-11h1.05l2.52 7.77 2.52-7.77H256z" stroke="#3a414a" stroke-width=".05" fill="#3a414a"/><use xlink:href="#q" transform="matrix(1,0,0,1,235.1969516313701,863.8591336060811) translate(0 16)"/><path d="M247.62 1109.9a8 8 0 0 1 9.6 0l101.02 75.78a4.5 4.5 0 0 1 0 7.2l-101.02 75.76a8 8 0 0 1-9.6 0l-101.02-75.76a4.5 4.5 0 0 1 0-7.2z" stroke="#3a414a" fill="#edf5ff"/><use xlink:href="#x" transform="matrix(1,0,0,1,146.79787777434106,1111.3111343963537) translate(65.53277777777778 69.625)"/><use xlink:href="#c" transform="matrix(1,0,0,1,146.79787777434106,1111.3111343963537) translate(117.69944444444445 69.625)"/><use xlink:href="#y" transform="matrix(1,0,0,1,146.79787777434106,1111.3111343963537) translate(37.81055555555555 93.625)"/><use xlink:href="#z" transform="matrix(1,0,0,1,146.79787777434106,1111.3111343963537) translate(121.03277777777778 93.625)"/><path d="M387.4 1189.78h-26.36v-1h26.37zm37.05 0h-10.48v-1h10.48z" stroke="#3a414a" stroke-width=".05" fill="#3a414a"/><path d="M361.06 1189.78h-.56l.04-.5-.04-.5h.56z" fill="#3a414a"/><path d="M361.08 1189.8h-.6l.04-.52-.05-.53h.6zm-.56-1l.05.48-.05.47h.5v-.95z" stroke="#3a414a" stroke-width=".05" fill="#3a414a"/><path d="M439.2 1189.28l-14.25 4.63v-9.26z" fill="#3a414a"/><path d="M440.83 1189.28l-16.38 5.32v-10.65zm-15.38 3.94l12.15-3.94-12.15-3.95z" stroke="#3a414a" stroke-width=".05" fill="#3a414a"/><use xlink:href="#m" transform="matrix(1,0,0,1,387.410366524848,1177.2771064824972) translate(0 16)"/><path d="M569.33 1149.28c17.68 0 32 17.9 32 40s-14.32 40-32 40h-96c-17.67 0-32-17.9-32-40s14.33-40 32-40z" stroke="#3a414a" fill="#fcfcca"/><use xlink:href="#A" transform="matrix(1,0,0,1,446.3340149691794,1154.2771064816843) translate(52.77777777777778 41.02083333333333)"/><path d="M252.92 1072.8h-1v-10.5h1z" stroke="#3a414a" stroke-width=".05" fill="#3a414a"/><path d="M252.42 1061.8l.5-.03v.54h-1v-.53z" fill="#3a414a"/><path d="M252.42 1061.77l.52-.03v.6h-1.05v-.6zm-.48.52h.95v-.5l-.48.02-.48-.03z" stroke="#3a414a" stroke-width=".05" fill="#3a414a"/><path d="M252.42 1106.2l-3.05-9.4h6.1z" fill="#3a414a"/><path d="M252.42 1107.8l-3.58-11h1.05l2.52 7.77 2.52-7.77H256z" stroke="#3a414a" stroke-width=".05" fill="#3a414a"/><use xlink:href="#q" transform="matrix(1,0,0,1,235.19695163136294,1072.804448802991) translate(0 16)"/><path d="M247.62 1318.86a8 8 0 0 1 9.6 0l101.02 75.76a4.5 4.5 0 0 1 0 7.2l-101.02 75.77a8 8 0 0 1-9.6 0L146.6 1401.8a4.5 4.5 0 0 1 0-7.2z" stroke="#3a414a" fill="#edf5ff"/><use xlink:href="#i" transform="matrix(1,0,0,1,146.79787777434106,1320.256449593293) translate(49.727222222222224 69.625)"/><use xlink:href="#j" transform="matrix(1,0,0,1,146.79787777434106,1320.256449593293) translate(70.83833333333334 69.625)"/><use xlink:href="#B" transform="matrix(1,0,0,1,146.79787777434106,1320.256449593293) translate(104.17166666666667 69.625)"/><use xlink:href="#C" transform="matrix(1,0,0,1,146.79787777434106,1320.256449593293) translate(37.78277777777778 93.625)"/><use xlink:href="#D" transform="matrix(1,0,0,1,146.79787777434106,1320.256449593293) translate(101.11611111111111 93.625)"/><path d="M252.92 1281.75h-1v-10.5h1z" stroke="#3a414a" stroke-width=".05" fill="#3a414a"/><path d="M252.42 1270.74l.5-.03v.56h-1v-.55z" fill="#3a414a"/><path d="M252.42 1270.72l.52-.03v.58h-1.05v-.6zm-.48.5h.95v-.48l-.48.03-.48-.03z" stroke="#3a414a" stroke-width=".05" fill="#3a414a"/><path d="M252.42 1315.14l-3.05-9.4h6.1z" fill="#3a414a"/><path d="M252.42 1316.76l-3.58-11h1.05l2.52 7.76 2.52-7.77H256z" stroke="#3a414a" stroke-width=".05" fill="#3a414a"/><use xlink:href="#q" transform="matrix(1,0,0,1,235.196951631363,1281.74976399993) translate(0 16)"/><path d="M387.4 1398.72h-26.36v-1h26.37zm37.05 0h-10.48v-1h10.48z" stroke="#3a414a" stroke-width=".05" fill="#3a414a"/><path d="M361.06 1398.72h-.56l.04-.5-.04-.5h.56z" fill="#3a414a"/><path d="M361.08 1398.75h-.6l.04-.53-.05-.52h.6zm-.56-1l.05.47-.05.48h.5v-.95z" stroke="#3a414a" stroke-width=".05" fill="#3a414a"/><path d="M439.2 1398.22l-14.25 4.64v-9.27z" fill="#3a414a"/><path d="M440.83 1398.22l-16.38 5.33v-10.65zm-15.38 3.95l12.15-3.95-12.15-3.94z" stroke="#3a414a" stroke-width=".05" fill="#3a414a"/><use xlink:href="#m" transform="matrix(1,0,0,1,387.4103665248325,1386.2224216794364) translate(0 16)"/><path d="M569.33 1358.22c17.68 0 32 17.9 32 40s-14.32 40-32 40h-96c-17.67 0-32-17.9-32-40s14.33-40 32-40z" stroke="#3a414a" fill="#fcfcca"/><use xlink:href="#E" transform="matrix(1,0,0,1,446.3340149691485,1363.2224216786235) translate(52.77777777777778 41.02083333333333)"/><path d="M387.4 1607.67h-26.36v-1h26.37zm37.05 0h-10.48v-1h10.48z" stroke="#3a414a" stroke-width=".05" fill="#3a414a"/><path d="M361.06 1607.67h-.56l.04-.5-.04-.5h.56z" fill="#3a414a"/><path d="M361.08 1607.7h-.6l.04-.53-.05-.53h.6zm-.56-1l.05.47-.05.47h.5v-.95z" stroke="#3a414a" stroke-width=".05" fill="#3a414a"/><path d="M439.2 1607.17l-14.25 4.63v-9.27z" fill="#3a414a"/><path d="M440.83 1607.17l-16.38 5.32v-10.66zm-15.38 3.94l12.15-3.93-12.15-3.95z" stroke="#3a414a" stroke-width=".05" fill="#3a414a"/><use xlink:href="#m" transform="matrix(1,0,0,1,387.4103665248467,1595.1677368763956) translate(0 16)"/><path d="M247.62 1527.8a8 8 0 0 1 9.6 0l101.02 75.77a4.5 4.5 0 0 1 0 7.2l-101.02 75.76a8 8 0 0 1-9.6 0l-101.02-75.76a4.5 4.5 0 0 1 0-7.2z" stroke="#3a414a" fill="#edf5ff"/><use xlink:href="#r" transform="matrix(1,0,0,1,146.79787777433856,1529.2017647902521) translate(41.97722222222224 69.625)"/><use xlink:href="#j" transform="matrix(1,0,0,1,146.79787777433856,1529.2017647902521) translate(78.58833333333334 69.625)"/><use xlink:href="#B" transform="matrix(1,0,0,1,146.79787777433856,1529.2017647902521) translate(111.92166666666667 69.625)"/><use xlink:href="#F" transform="matrix(1,0,0,1,146.79787777433856,1529.2017647902521) translate(47.81055555555555 93.625)"/><use xlink:href="#G" transform="matrix(1,0,0,1,146.79787777433856,1529.2017647902521) translate(111.08833333333334 93.625)"/><path d="M569.33 1567.17c17.68 0 32 17.9 32 40s-14.32 40-32 40h-96c-17.67 0-32-17.9-32-40s14.33-40 32-40z" stroke="#3a414a" fill="#fcfcca"/><use xlink:href="#H" transform="matrix(1,0,0,1,446.3340149691794,1572.1677368754754) translate(52.77777777777778 41.02083333333333)"/><path d="M252.92 1490.7h-1v-10.5h1z" stroke="#3a414a" stroke-width=".05" fill="#3a414a"/><path d="M252.42 1479.7l.5-.04v.54h-1v-.54z" fill="#3a414a"/><path d="M252.42 1479.66l.52-.03v.6h-1.05v-.6zm-.48.52h.95v-.5l-.48.03-.48-.02z" stroke="#3a414a" stroke-width=".05" fill="#3a414a"/><path d="M252.42 1524.08l-3.05-9.38h6.1z" fill="#3a414a"/><path d="M252.42 1525.7l-3.58-11h1.05l2.52 7.76 2.52-7.76H256z" stroke="#3a414a" stroke-width=".05" fill="#3a414a"/><use xlink:href="#q" transform="matrix(1,0,0,1,235.196951631363,1490.6950791968795) translate(0 16)"/><path d="M300.42 1797.73c17.67 0 32 17.9 32 40s-14.33 40-32 40h-96c-17.67 0-32-17.9-32-40s14.33-40 32-40z" stroke="#282c33" fill="#fcfcca"/><use xlink:href="#E" transform="matrix(1,0,0,1,177.41917396696613,1802.72808467889) translate(52.77777777777778 41.02083333333333)"/><path d="M252.92 1780.84h-1v-25.9h1zm0-49.9h-1v-41.8h1z" stroke="#3a414a" stroke-width=".05" fill="#3a414a"/><path d="M252.42 1688.63l.5-.03v.55h-1v-.55z" fill="#3a414a"/><path d="M252.42 1688.6l.52-.02v.6h-1.05v-.6zm-.48.52h.95v-.5l-.48.04-.48-.03z" stroke="#3a414a" stroke-width=".05" fill="#3a414a"/><path d="M252.42 1795.6l-4.64-14.26h9.27z" fill="#3a414a"/><path d="M252.42 1797.23l-5.32-16.4h10.64zm-3.95-15.4l3.95 12.16 3.95-12.16z" stroke="#3a414a" stroke-width=".05" fill="#3a414a"/><use xlink:href="#q" transform="matrix(1,0,0,1,235.19695163136043,1730.931404966391) translate(0 16)"/><path d="M785.45 483.08a8 8 0 0 1 9.6 0l101.02 75.76a4.5 4.5 0 0 1 0 7.2L795.05 641.8a8 8 0 0 1-9.6 0l-101.02-75.76a4.5 4.5 0 0 1 0-7.2z" stroke="#3a414a" fill="#edf5ff"/><use xlink:href="#i" transform="matrix(1,0,0,1,684.6275597787595,484.4751888056053) translate(36.67166666666667 69.625)"/><use xlink:href="#j" transform="matrix(1,0,0,1,684.6275597787595,484.4751888056053) translate(57.782777777777774 69.625)"/><use xlink:href="#g" transform="matrix(1,0,0,1,684.6275597787595,484.4751888056053) translate(91.11611111111111 69.625)"/><use xlink:href="#I" transform="matrix(1,0,0,1,684.6275597787595,484.4751888056053) translate(54.44944444444445 93.625)"/><use xlink:href="#J" transform="matrix(1,0,0,1,684.6275597787595,484.4751888056053) translate(123.22722222222222 93.625)"/><path d="M790.75 445.97h-1v-10.5h1z" stroke="#3a414a" stroke-width=".05" fill="#3a414a"/><path d="M790.25 434.96l.5-.03v.55h-1v-.55z" fill="#3a414a"/><path d="M790.25 434.94l.52-.04v.6h-1.05v-.6zm-.48.5h.95v-.48l-.47.03-.48-.04z" stroke="#3a414a" stroke-width=".05" fill="#3a414a"/><path d="M790.25 479.36l-3.05-9.4h6.1z" fill="#3a414a"/><path d="M790.25 480.97l-3.58-11h1.05l2.53 7.77 2.52-7.77h1.05z" stroke="#3a414a" stroke-width=".05" fill="#3a414a"/><use xlink:href="#q" transform="matrix(1,0,0,1,773.0266336357715,445.968503212283) translate(0 16)"/><path d="M1107.16 522.44c17.68 0 32 17.9 32 40s-14.32 40-32 40h-96c-17.67 0-32-17.9-32-40s14.33-40 32-40z" stroke="#3a414a" fill="#ffd9d9"/><use xlink:href="#K" transform="matrix(1,0,0,1,984.1636969736162,527.4411609501112) translate(52.77777777777777 41.020833333333336)"/><path d="M925.24 562.94h-26.37v-1h26.37zm37.04 0H951.8v-1h10.48z" stroke="#3a414a" stroke-width=".05" fill="#3a414a"/><path d="M898.9 562.94h-.57l.04-.5-.04-.5h.56z" fill="#3a414a"/><path d="M898.9 562.97h-.6l.05-.53-.05-.52h.6zm-.55-1l.05.47-.05.48h.5v-.95z" stroke="#3a414a" stroke-width=".05" fill="#3a414a"/><path d="M977.05 562.44l-14.27 4.64v-9.27z" fill="#3a414a"/><path d="M978.66 562.44l-16.38 5.32v-10.64zm-15.38 3.95l12.15-3.96-12.15-3.95z" stroke="#3a414a" stroke-width=".05" fill="#3a414a"/><use xlink:href="#m" transform="matrix(1,0,0,1,925.2400485282508,550.4411608918838) translate(0 16)"/><path d="M1376.08 940.33c17.67 0 32 17.9 32 40s-14.33 40-32 40h-96c-17.67 0-32-17.9-32-40s14.33-40 32-40z" stroke="#3a414a" fill="#ffd9d9"/><use xlink:href="#L" transform="matrix(1,0,0,1,1253.0785379758406,945.3317912256425) translate(52.77777777777777 41.020833333333336)"/><path d="M785.45 692.02a8 8 0 0 1 9.6 0l101.02 75.77a4.5 4.5 0 0 1 0 7.2l-101.02 75.75a8 8 0 0 1-9.6 0L684.43 775a4.5 4.5 0 0 1 0-7.2z" stroke="#3a414a" fill="#edf5ff"/><use xlink:href="#i" transform="matrix(1,0,0,1,684.6275597787462,693.4205040024826) translate(81.06055555555557 45.25)"/><use xlink:href="#c" transform="matrix(1,0,0,1,684.6275597787462,693.4205040024826) translate(102.17166666666667 45.25)"/><use xlink:href="#M" transform="matrix(1,0,0,1,684.6275597787462,693.4205040024826) translate(29.505000000000006 69.25)"/><use xlink:href="#N" transform="matrix(1,0,0,1,684.6275597787462,693.4205040024826) translate(118.2827777777778 69.25)"/><use xlink:href="#O" transform="matrix(1,0,0,1,684.6275597787462,693.4205040024826) translate(45.58833333333334 93.25)"/><use xlink:href="#e" transform="matrix(1,0,0,1,684.6275597787462,693.4205040024826) translate(149.92166666666668 93.25)"/><use xlink:href="#P" transform="matrix(1,0,0,1,684.6275597787462,693.4205040024826) translate(81.11611111111111 117.25)"/><path d="M790.75 656.25h-1V644.4h1z" stroke="#3a414a" stroke-width=".05" fill="#3a414a"/><path d="M790.25 643.9l.5-.02v.54h-1v-.54z" fill="#3a414a"/><path d="M790.25 643.88l.52-.03v.6h-1.05v-.6zm-.48.52h.95v-.5l-.47.03-.48-.03z" stroke="#3a414a" stroke-width=".05" fill="#3a414a"/><path d="M790.25 688.3l-3.48-10.72h6.96z" fill="#3a414a"/><path d="M790.25 689.92l-4-12.34h1.04l2.95 9.1 2.96-9.1h1.06z" stroke="#3a414a" stroke-width=".05" fill="#3a414a"/><use xlink:href="#Q" transform="matrix(1,0,0,1,774.9402138826949,656.2471517424847) translate(0 14.222222222222223)"/><path d="M926.72 771.9h-27.85v-1h27.85zm35.56 0h-11.96v-1h11.96z" stroke="#3a414a" stroke-width=".05" fill="#3a414a"/><path d="M898.9 771.9h-.57l.04-.5-.04-.5h.56z" fill="#3a414a"/><path d="M898.9 771.9h-.6l.05-.5-.05-.54h.6zm-.55-1l.05.5-.05.46h.5v-.95z" stroke="#3a414a" stroke-width=".05" fill="#3a414a"/><path d="M977.04 771.4L962.78 776v-9.27z" fill="#3a414a"/><path d="M978.66 771.4l-16.38 5.3v-10.64zm-15.38 3.93l12.15-3.94-12.15-3.96z" stroke="#3a414a" stroke-width=".05" fill="#3a414a"/><use xlink:href="#R" transform="matrix(1,0,0,1,926.7153571712442,760.719809421961) translate(0 14.222222222222223)"/><path d="M1107.16 731.4c17.68 0 32 17.9 32 40 0 22.08-14.32 40-32 40h-96c-17.67 0-32-17.92-32-40 0-22.1 14.33-40 32-40z" stroke="#3a414a" fill="#ffd9d9"/><use xlink:href="#S" transform="matrix(1,0,0,1,984.1636969736162,736.386476147012) translate(52.77777777777777 41.020833333333336)"/><path d="M785.45 692.02a8 8 0 0 1 9.6 0l101.02 75.77a4.5 4.5 0 0 1 0 7.2l-101.02 75.75a8 8 0 0 1-9.6 0L684.43 775a4.5 4.5 0 0 1 0-7.2z" stroke="#3a414a" fill="#edf5ff"/><use xlink:href="#i" transform="matrix(1,0,0,1,684.6275597787462,693.4205040024826) translate(81.06055555555557 45.25)"/><use xlink:href="#c" transform="matrix(1,0,0,1,684.6275597787462,693.4205040024826) translate(102.17166666666667 45.25)"/><use xlink:href="#M" transform="matrix(1,0,0,1,684.6275597787462,693.4205040024826) translate(29.505000000000006 69.25)"/><use xlink:href="#N" transform="matrix(1,0,0,1,684.6275597787462,693.4205040024826) translate(118.2827777777778 69.25)"/><use xlink:href="#O" transform="matrix(1,0,0,1,684.6275597787462,693.4205040024826) translate(45.58833333333334 93.25)"/><use xlink:href="#e" transform="matrix(1,0,0,1,684.6275597787462,693.4205040024826) translate(149.92166666666668 93.25)"/><use xlink:href="#P" transform="matrix(1,0,0,1,684.6275597787462,693.4205040024826) translate(81.11611111111111 117.25)"/><path d="M838.25 940.33c17.67 0 32 17.9 32 40s-14.33 40-32 40h-96c-17.67 0-32-17.9-32-40s14.33-40 32-40z" stroke="#3a414a" fill="#ffd9d9"/><use xlink:href="#T" transform="matrix(1,0,0,1,715.2488559713845,945.3317913438932) translate(52.77777777777777 41.020833333333336)"/><path d="M790.75 923.45h-1V907h1zm0-37.77h-1v-32.33h1z" stroke="#3a414a" stroke-width=".05" fill="#3a414a"/><path d="M790.25 852.85l.5-.03v.55h-1v-.55z" fill="#3a414a"/><path d="M790.25 852.83l.52-.04v.6h-1.05v-.6zm-.48.5h.95v-.48l-.47.03-.48-.03z" stroke="#3a414a" stroke-width=".05" fill="#3a414a"/><path d="M790.25 938.2l-4.64-14.25h9.28z" fill="#3a414a"/><path d="M790.25 939.83l-5.32-16.38h10.64zm-3.95-15.38l3.95 12.15 3.95-12.15z" stroke="#3a414a" stroke-width=".05" fill="#3a414a"/><use xlink:href="#Q" transform="matrix(1,0,0,1,774.9402138836978,885.6759612383413) translate(0 14.222222222222223)"/><path d="M1323.28 274.13a8 8 0 0 1 9.6 0l101.02 75.77a4.5 4.5 0 0 1 0 7.2l-101.02 75.76a8 8 0 0 1-9.6 0l-101.02-75.76a4.5 4.5 0 0 1 0-7.2z" stroke="#3a414a" fill="#edf5ff"/><use xlink:href="#a" transform="matrix(1,0,0,1,1222.4572417831864,275.52987360872794) translate(40.64388888888888 69.625)"/><use xlink:href="#U" transform="matrix(1,0,0,1,1222.4572417831864,275.52987360872794) translate(120.47722222222221 69.625)"/><use xlink:href="#V" transform="matrix(1,0,0,1,1222.4572417831864,275.52987360872794) translate(141.53277777777777 69.625)"/><use xlink:href="#h" transform="matrix(1,0,0,1,1222.4572417831864,275.52987360872794) translate(68.33833333333334 93.625)"/><path d="M1047.36 354h-148.5v-1h148.5zm156.2 0h-132.6v-1h132.6z" stroke="#3a414a" stroke-width=".05" fill="#3a414a"/><path d="M898.9 354h-.57l.04-.5-.04-.5h.56z" fill="#3a414a"/><path d="M898.9 354.02h-.6l.05-.52-.05-.53h.6zm-.55-1l.05.48-.05.47h.5v-.95z" stroke="#3a414a" stroke-width=".05" fill="#3a414a"/><path d="M1218.34 353.5l-14.27 4.63v-9.27z" fill="#3a414a"/><path d="M1219.96 353.5l-16.4 5.32v-10.65zm-15.4 3.94l12.16-3.94-12.15-3.95z" stroke="#3a414a" stroke-width=".05" fill="#3a414a"/><g><use xlink:href="#R" transform="matrix(1,0,0,1,1047.3612276373324,342.82917902624524) translate(0 14.222222222222223)"/></g><path d="M1323.28 483.08a8 8 0 0 1 9.6 0l101.02 75.76a4.5 4.5 0 0 1 0 7.2l-101.02 75.77a8 8 0 0 1-9.6 0l-101.02-75.76a4.5 4.5 0 0 1 0-7.2z" stroke="#3a414a" fill="#edf5ff"/><g><use xlink:href="#i" transform="matrix(1,0,0,1,1222.4572417832678,484.4751888056053) translate(26.69944444444446 84.25)"/><use xlink:href="#W" transform="matrix(1,0,0,1,1222.4572417832678,484.4751888056053) translate(47.810555555555574 84.25)"/><use xlink:href="#I" transform="matrix(1,0,0,1,1222.4572417832678,484.4751888056053) translate(82.19944444444445 84.25)"/><use xlink:href="#J" transform="matrix(1,0,0,1,1222.4572417832678,484.4751888056053) translate(150.97722222222222 84.25)"/></g><path d="M1323.28 692.02a8 8 0 0 1 9.6 0l101.02 75.77a4.5 4.5 0 0 1 0 7.2l-101.02 75.75a8 8 0 0 1-9.6 0L1222.26 775a4.5 4.5 0 0 1 0-7.2z" stroke="#3a414a" fill="#edf5ff"/><g><use xlink:href="#i" transform="matrix(1,0,0,1,1222.4572417832678,693.4205040024826) translate(80.53277777777778 55)"/><use xlink:href="#V" transform="matrix(1,0,0,1,1222.4572417832678,693.4205040024826) translate(101.64388888888888 55)"/><use xlink:href="#I" transform="matrix(1,0,0,1,1222.4572417832678,693.4205040024826) translate(21.727222222222217 79)"/><use xlink:href="#X" transform="matrix(1,0,0,1,1222.4572417832678,693.4205040024826) translate(90.505 79)"/><use xlink:href="#U" transform="matrix(1,0,0,1,1222.4572417832678,693.4205040024826) translate(70.58833333333334 103)"/><use xlink:href="#P" transform="matrix(1,0,0,1,1222.4572417832678,693.4205040024826) translate(91.64388888888888 103)"/></g><path d="M1328.58 447.3h-1v-11.84h1z" stroke="#3a414a" stroke-width=".05" fill="#3a414a"/><path d="M1328.08 434.96l.5-.03v.55h-1v-.55z" fill="#3a414a"/><path d="M1328.08 434.94l.52-.04v.6h-1.05v-.6zm-.48.5h.95v-.48l-.47.03-.48-.04z" stroke="#3a414a" stroke-width=".05" fill="#3a414a"/><path d="M1328.08 479.36l-3.48-10.72h6.96z" fill="#3a414a"/><path d="M1328.08 480.97l-4-12.33h1.04l2.96 9.1 2.96-9.1h1.05z" stroke="#3a414a" stroke-width=".05" fill="#3a414a"/><g><use xlink:href="#Q" transform="matrix(1,0,0,1,1312.7698959011066,447.3018365465055) translate(0 14.222222222222223)"/></g><path d="M1328.58 656.25h-1V644.4h1z" stroke="#3a414a" stroke-width=".05" fill="#3a414a"/><path d="M1328.08 643.9l.5-.02v.54h-1v-.54z" fill="#3a414a"/><path d="M1328.08 643.88l.52-.03v.6h-1.05v-.6zm-.48.52h.95v-.5l-.47.03-.48-.03z" stroke="#3a414a" stroke-width=".05" fill="#3a414a"/><path d="M1328.08 688.3l-3.48-10.72h6.96z" fill="#3a414a"/><path d="M1328.08 689.92l-4-12.34h1.04l2.96 9.1 2.96-9.1h1.05z" stroke="#3a414a" stroke-width=".05" fill="#3a414a"/><g><use xlink:href="#Q" transform="matrix(1,0,0,1,1312.7698959011798,656.247151743385) translate(0 14.222222222222223)"/></g><path d="M1328.58 923.45h-1V907h1zm0-37.77h-1v-32.33h1z" stroke="#3a414a" stroke-width=".05" fill="#3a414a"/><path d="M1328.08 852.85l.5-.03v.55h-1v-.55z" fill="#3a414a"/><path d="M1328.08 852.83l.52-.04v.6h-1.05v-.6zm-.48.5h.95v-.48l-.47.03-.48-.03z" stroke="#3a414a" stroke-width=".05" fill="#3a414a"/><path d="M1328.08 938.2l-4.64-14.25h9.27z" fill="#3a414a"/><path d="M1328.08 939.83l-5.32-16.38h10.64zm-3.95-15.38l3.95 12.15 3.95-12.15z" stroke="#3a414a" stroke-width=".05" fill="#3a414a"/><g><use xlink:href="#Q" transform="matrix(1,0,0,1,1312.7698959011798,885.6759611796664) translate(0 14.222222222222223)"/></g><path d="M1646.2 522.44c17.68 0 32 17.9 32 40s-14.32 40-32 40h-96c-17.66 0-32-17.9-32-40s14.34-40 32-40z" stroke="#3a414a" fill="#ff8f8f"/><g><use xlink:href="#K" transform="matrix(1,0,0,1,1523.2095516315883,527.4411609501683) translate(52.77777777777777 41.020833333333336)"/></g><path d="M1646.2 731.4c17.68 0 32 17.9 32 40 0 22.08-14.32 40-32 40h-96c-17.66 0-32-17.92-32-40 0-22.1 14.34-40 32-40z" stroke="#3a414a" fill="#ff8f8f"/><g><use xlink:href="#S" transform="matrix(1,0,0,1,1523.2095516315883,736.3864761470456) translate(52.77777777777777 41.020833333333336)"/></g><path d="M1465.15 562.94h-28.45v-1h28.45zm36.17 0h-12.56v-1h12.56z" stroke="#3a414a" stroke-width=".05" fill="#3a414a"/><path d="M1436.7 562.94h-.54l.04-.5-.04-.5h.55z" fill="#3a414a"/><path d="M1436.74 562.97h-.6l.04-.53-.05-.52h.6zm-.56-1l.05.47-.05.48h.5v-.95z" stroke="#3a414a" stroke-width=".05" fill="#3a414a"/><path d="M1516.1 562.44l-14.28 4.64v-9.27z" fill="#3a414a"/><path d="M1517.7 562.44l-16.38 5.32v-10.64zm-15.38 3.95l12.15-3.96-12.15-3.95z" stroke="#3a414a" stroke-width=".05" fill="#3a414a"/><g><use xlink:href="#R" transform="matrix(1,0,0,1,1465.1531255015186,551.7744942230967) translate(0 14.222222222222223)"/></g><path d="M1465.15 771.9h-28.45v-1h28.45zm36.17 0h-12.56v-1h12.56z" stroke="#3a414a" stroke-width=".05" fill="#3a414a"/><path d="M1436.7 771.9h-.54l.04-.5-.04-.5h.55z" fill="#3a414a"/><path d="M1436.74 771.9h-.6l.04-.5-.05-.54h.6zm-.56-1l.05.5-.05.46h.5v-.95z" stroke="#3a414a" stroke-width=".05" fill="#3a414a"/><path d="M1516.1 771.4L1501.8 776v-9.27z" fill="#3a414a"/><path d="M1517.7 771.4l-16.38 5.3v-10.64zm-15.38 3.93l12.15-3.94-12.15-3.96z" stroke="#3a414a" stroke-width=".05" fill="#3a414a"/><g><use xlink:href="#R" transform="matrix(1,0,0,1,1465.1531255015186,760.719809419974) translate(0 14.222222222222223)"/></g><path d="M376.45 454.15a6 6 0 0 1 6-6h266.18a6 6 0 0 1 6 6v51.33a6 6 0 0 1-6 6H382.45a6 6 0 0 1-6-6z" stroke="#000" stroke-opacity="0" stroke-width="4" fill="#fff" fill-opacity="0"/><g><use xlink:href="#Y" transform="matrix(1,0,0,1,381.4462334057562,453.1497212035065) translate(14.666666666666686 29.5)"/><use xlink:href="#Z" transform="matrix(1,0,0,1,381.4462334057562,453.1497212035065) translate(102.3888888888889 29.5)"/><use xlink:href="#aa" transform="matrix(1,0,0,1,381.4462334057562,453.1497212035065) translate(194.38888888888889 29.5)"/></g><path d="M1456.7 454.15a6 6 0 0 1 6-6h266.2a6 6 0 0 1 6 6v51.33a6 6 0 0 1-6 6h-266.2a6 6 0 0 1-6-6z" stroke="#000" stroke-opacity="0" stroke-width="4" fill="#fff" fill-opacity="0"/><g><use xlink:href="#Y" transform="matrix(1,0,0,1,1461.7114112148315,453.1497212035065) translate(14.666666666666686 29.5)"/><use xlink:href="#Z" transform="matrix(1,0,0,1,1461.7114112148315,453.1497212035065) translate(102.3888888888889 29.5)"/><use xlink:href="#aa" transform="matrix(1,0,0,1,1461.7114112148315,453.1497212035065) translate(194.38888888888889 29.5)"/></g><defs><path fill="#3a414a" d="M30-248c87 1 191-15 191 75 0 78-77 80-158 76V0H30v-248zm33 125c57 0 124 11 124-50 0-59-68-47-124-48v98" id="ab"/><path fill="#3a414a" d="M114-163C36-179 61-72 57 0H25l-1-190h30c1 12-1 29 2 39 6-27 23-49 58-41v29" id="ac"/><path fill="#3a414a" d="M100-194c62-1 85 37 85 99 1 63-27 99-86 99S16-35 15-95c0-66 28-99 85-99zM99-20c44 1 53-31 53-75 0-43-8-75-51-75s-53 32-53 75 10 74 51 75" id="ad"/><path fill="#3a414a" d="M115-194c53 0 69 39 70 98 0 66-23 100-70 100C84 3 66-7 56-30L54 0H23l1-261h32v101c10-23 28-34 59-34zm-8 174c40 0 45-34 45-75 0-40-5-75-45-74-42 0-51 32-51 76 0 43 10 73 51 73" id="ae"/><path fill="#3a414a" d="M24 0v-261h32V0H24" id="af"/><path fill="#3a414a" d="M100-194c63 0 86 42 84 106H49c0 40 14 67 53 68 26 1 43-12 49-29l28 8c-11 28-37 45-77 45C44 4 14-33 15-96c1-61 26-98 85-98zm52 81c6-60-76-77-97-28-3 7-6 17-6 28h103" id="ag"/><path fill="#3a414a" d="M210-169c-67 3-38 105-44 169h-31v-121c0-29-5-50-35-48C34-165 62-65 56 0H25l-1-190h30c1 10-1 24 2 32 10-44 99-50 107 0 11-21 27-35 58-36 85-2 47 119 55 194h-31v-121c0-29-5-49-35-48" id="ah"/><g id="a"><use transform="matrix(0.05555555555555555,0,0,0.05555555555555555,0,0)" xlink:href="#ab"/><use transform="matrix(0.05555555555555555,0,0,0.05555555555555555,13.333333333333332,0)" xlink:href="#ac"/><use transform="matrix(0.05555555555555555,0,0,0.05555555555555555,19.944444444444443,0)" xlink:href="#ad"/><use transform="matrix(0.05555555555555555,0,0,0.05555555555555555,31.055555555555554,0)" xlink:href="#ae"/><use transform="matrix(0.05555555555555555,0,0,0.05555555555555555,42.166666666666664,0)" xlink:href="#af"/><use transform="matrix(0.05555555555555555,0,0,0.05555555555555555,46.55555555555555,0)" xlink:href="#ag"/><use transform="matrix(0.05555555555555555,0,0,0.05555555555555555,57.666666666666664,0)" xlink:href="#ah"/></g><path fill="#3a414a" d="M206 0h-36l-40-164L89 0H53L-1-190h32L70-26l43-164h34l41 164 42-164h31" id="ai"/><path fill="#3a414a" d="M24-231v-30h32v30H24zM24 0v-190h32V0H24" id="aj"/><path fill="#3a414a" d="M59-47c-2 24 18 29 38 22v24C64 9 27 4 27-40v-127H5v-23h24l9-43h21v43h35v23H59v120" id="ak"/><path fill="#3a414a" d="M106-169C34-169 62-67 57 0H25v-261h32l-1 103c12-21 28-36 61-36 89 0 53 116 60 194h-32v-121c2-32-8-49-39-48" id="al"/><g id="b"><use transform="matrix(0.05555555555555555,0,0,0.05555555555555555,0,0)" xlink:href="#ai"/><use transform="matrix(0.05555555555555555,0,0,0.05555555555555555,14.388888888888888,0)" xlink:href="#aj"/><use transform="matrix(0.05555555555555555,0,0,0.05555555555555555,18.777777777777775,0)" xlink:href="#ak"/><use transform="matrix(0.05555555555555555,0,0,0.05555555555555555,24.33333333333333,0)" xlink:href="#al"/></g><g id="c"><use transform="matrix(0.05555555555555555,0,0,0.05555555555555555,0,0)" xlink:href="#ak"/><use transform="matrix(0.05555555555555555,0,0,0.05555555555555555,5.555555555555555,0)" xlink:href="#al"/><use transform="matrix(0.05555555555555555,0,0,0.05555555555555555,16.666666666666664,0)" xlink:href="#ag"/></g><path fill="#3a414a" d="M145-31C134-9 116 4 85 4 32 4 16-35 15-94c0-59 17-99 70-100 32-1 48 14 60 33 0-11-1-24 2-32h30l-1 268h-32zM93-21c41 0 51-33 51-76s-8-73-50-73c-40 0-46 35-46 75s5 74 45 74" id="am"/><path fill="#3a414a" d="M84 4C-5 8 30-112 23-190h32v120c0 31 7 50 39 49 72-2 45-101 50-169h31l1 190h-30c-1-10 1-25-2-33-11 22-28 36-60 37" id="an"/><path fill="#3a414a" d="M135-143c-3-34-86-38-87 0 15 53 115 12 119 90S17 21 10-45l28-5c4 36 97 45 98 0-10-56-113-15-118-90-4-57 82-63 122-42 12 7 21 19 24 35" id="ao"/><path fill="#3a414a" d="M103-251c84 0 111 97 45 133-19 10-37 24-39 52H78c0-63 77-55 77-114 0-30-21-42-52-43-32 0-53 17-56 46l-32-2c7-45 34-72 88-72zM77 0v-35h34V0H77" id="ap"/><g id="d"><use transform="matrix(0.05555555555555555,0,0,0.05555555555555555,0,0)" xlink:href="#ac"/><use transform="matrix(0.05555555555555555,0,0,0.05555555555555555,6.611111111111111,0)" xlink:href="#ag"/><use transform="matrix(0.05555555555555555,0,0,0.05555555555555555,17.72222222222222,0)" xlink:href="#am"/><use transform="matrix(0.05555555555555555,0,0,0.05555555555555555,28.833333333333332,0)" xlink:href="#an"/><use transform="matrix(0.05555555555555555,0,0,0.05555555555555555,39.94444444444444,0)" xlink:href="#ag"/><use transform="matrix(0.05555555555555555,0,0,0.05555555555555555,51.05555555555556,0)" xlink:href="#ao"/><use transform="matrix(0.05555555555555555,0,0,0.05555555555555555,61.05555555555555,0)" xlink:href="#ak"/><use transform="matrix(0.05555555555555555,0,0,0.05555555555555555,66.61111111111111,0)" xlink:href="#ap"/></g><path fill="#3a414a" d="M117-194c89-4 53 116 60 194h-32v-121c0-31-8-49-39-48C34-167 62-67 57 0H25l-1-190h30c1 10-1 24 2 32 11-22 29-35 61-36" id="aq"/><g id="e"><use transform="matrix(0.05555555555555555,0,0,0.05555555555555555,0,0)" xlink:href="#aj"/><use transform="matrix(0.05555555555555555,0,0,0.05555555555555555,4.388888888888888,0)" xlink:href="#aq"/></g><path fill="#3a414a" d="M141-36C126-15 110 5 73 4 37 3 15-17 15-53c-1-64 63-63 125-63 3-35-9-54-41-54-24 1-41 7-42 31l-33-3c5-37 33-52 76-52 45 0 72 20 72 64v82c-1 20 7 32 28 27v20c-31 9-61-2-59-35zM48-53c0 20 12 33 32 33 41-3 63-29 60-74-43 2-92-5-92 41" id="ar"/><g id="f"><use transform="matrix(0.05555555555555555,0,0,0.05555555555555555,0,0)" xlink:href="#ar"/><use transform="matrix(0.05555555555555555,0,0,0.05555555555555555,11.11111111111111,0)" xlink:href="#aq"/></g><path fill="#3a414a" d="M115-194c55 1 70 41 70 98S169 2 115 4C84 4 66-9 55-30l1 105H24l-1-265h31l2 30c10-21 28-34 59-34zm-8 174c40 0 45-34 45-75s-6-73-45-74c-42 0-51 32-51 76 0 43 10 73 51 73" id="as"/><g id="g"><use transform="matrix(0.05555555555555555,0,0,0.05555555555555555,0,0)" xlink:href="#an"/><use transform="matrix(0.05555555555555555,0,0,0.05555555555555555,11.11111111111111,0)" xlink:href="#as"/><use transform="matrix(0.05555555555555555,0,0,0.05555555555555555,22.22222222222222,0)" xlink:href="#ao"/><use transform="matrix(0.05555555555555555,0,0,0.05555555555555555,32.22222222222222,0)" xlink:href="#ak"/><use transform="matrix(0.05555555555555555,0,0,0.05555555555555555,37.77777777777778,0)" xlink:href="#ac"/><use transform="matrix(0.05555555555555555,0,0,0.05555555555555555,44.388888888888886,0)" xlink:href="#ag"/><use transform="matrix(0.05555555555555555,0,0,0.05555555555555555,55.5,0)" xlink:href="#ar"/><use transform="matrix(0.05555555555555555,0,0,0.05555555555555555,66.61111111111111,0)" xlink:href="#ah"/></g><path fill="#3a414a" d="M108 0H70L1-190h34L89-25l56-165h34" id="at"/><path fill="#3a414a" d="M96-169c-40 0-48 33-48 73s9 75 48 75c24 0 41-14 43-38l32 2c-6 37-31 61-74 61-59 0-76-41-82-99-10-93 101-131 147-64 4 7 5 14 7 22l-32 3c-4-21-16-35-41-35" id="au"/><g id="h"><use transform="matrix(0.05555555555555555,0,0,0.05555555555555555,0,0)" xlink:href="#ao"/><use transform="matrix(0.05555555555555555,0,0,0.05555555555555555,10,0)" xlink:href="#ag"/><use transform="matrix(0.05555555555555555,0,0,0.05555555555555555,21.11111111111111,0)" xlink:href="#ac"/><use transform="matrix(0.05555555555555555,0,0,0.05555555555555555,27.72222222222222,0)" xlink:href="#at"/><use transform="matrix(0.05555555555555555,0,0,0.05555555555555555,37.72222222222222,0)" xlink:href="#aj"/><use transform="matrix(0.05555555555555555,0,0,0.05555555555555555,42.11111111111111,0)" xlink:href="#au"/><use transform="matrix(0.05555555555555555,0,0,0.05555555555555555,52.11111111111111,0)" xlink:href="#ag"/><use transform="matrix(0.05555555555555555,0,0,0.05555555555555555,63.22222222222222,0)" xlink:href="#ap"/></g><path fill="#3a414a" d="M33 0v-248h34V0H33" id="av"/><g id="i"><use transform="matrix(0.05555555555555555,0,0,0.05555555555555555,0,0)" xlink:href="#av"/><use transform="matrix(0.05555555555555555,0,0,0.05555555555555555,5.555555555555555,0)" xlink:href="#ao"/></g><g id="j"><use transform="matrix(0.05555555555555555,0,0,0.05555555555555555,0,0)" xlink:href="#ak"/><use transform="matrix(0.05555555555555555,0,0,0.05555555555555555,5.555555555555555,0)" xlink:href="#al"/><use transform="matrix(0.05555555555555555,0,0,0.05555555555555555,16.666666666666664,0)" xlink:href="#ag"/></g><g id="k"><use transform="matrix(0.05555555555555555,0,0,0.05555555555555555,0,0)" xlink:href="#an"/><use transform="matrix(0.05555555555555555,0,0,0.05555555555555555,11.11111111111111,0)" xlink:href="#ao"/><use transform="matrix(0.05555555555555555,0,0,0.05555555555555555,21.11111111111111,0)" xlink:href="#ag"/><use transform="matrix(0.05555555555555555,0,0,0.05555555555555555,32.22222222222222,0)" xlink:href="#ac"/></g><path fill="#3a414a" d="M9 0v-24l116-142H16v-24h144v24L44-24h123V0H9" id="aw"/><path fill="#3a414a" d="M85-194c31 0 48 13 60 33l-1-100h32l1 261h-30c-2-10 0-23-3-31C134-8 116 4 85 4 32 4 16-35 15-94c0-66 23-100 70-100zm9 24c-40 0-46 34-46 75 0 40 6 74 45 74 42 0 51-32 51-76 0-42-9-74-50-73" id="ax"/><g id="l"><use transform="matrix(0.05555555555555555,0,0,0.05555555555555555,0,0)" xlink:href="#ar"/><use transform="matrix(0.05555555555555555,0,0,0.05555555555555555,11.11111111111111,0)" xlink:href="#an"/><use transform="matrix(0.05555555555555555,0,0,0.05555555555555555,22.22222222222222,0)" xlink:href="#ak"/><use transform="matrix(0.05555555555555555,0,0,0.05555555555555555,27.77777777777778,0)" xlink:href="#al"/><use transform="matrix(0.05555555555555555,0,0,0.05555555555555555,38.888888888888886,0)" xlink:href="#ad"/><use transform="matrix(0.05555555555555555,0,0,0.05555555555555555,50,0)" xlink:href="#ac"/><use transform="matrix(0.05555555555555555,0,0,0.05555555555555555,56.611111111111114,0)" xlink:href="#aj"/><use transform="matrix(0.05555555555555555,0,0,0.05555555555555555,61,0)" xlink:href="#aw"/><use transform="matrix(0.05555555555555555,0,0,0.05555555555555555,71,0)" xlink:href="#ag"/><use transform="matrix(0.05555555555555555,0,0,0.05555555555555555,82.11111111111111,0)" xlink:href="#ax"/><use transform="matrix(0.05555555555555555,0,0,0.05555555555555555,93.22222222222223,0)" xlink:href="#ap"/></g><path fill="#333" d="M175 0L67-191c6 58 2 128 3 191H24v-248h59L193-55c-6-58-2-129-3-193h46V0h-61" id="ay"/><path fill="#333" d="M110-194c64 0 96 36 96 99 0 64-35 99-97 99-61 0-95-36-95-99 0-62 34-99 96-99zm-1 164c35 0 45-28 45-65 0-40-10-65-43-65-34 0-45 26-45 65 0 36 10 65 43 65" id="az"/><g id="m"><use transform="matrix(0.05555555555555555,0,0,0.05555555555555555,0,0)" xlink:href="#ay"/><use transform="matrix(0.05555555555555555,0,0,0.05555555555555555,14.388888888888888,0)" xlink:href="#az"/></g><path fill="#3a414a" d="M165-50V0h-47v-50H5v-38l105-160h55v161h33v37h-33zm-47-37l2-116L46-87h72" id="aA"/><path fill="#3a414a" d="M101-251c68 0 84 54 84 127C185-50 166 4 99 4S15-52 14-124c-1-75 17-127 87-127zm-1 216c37-5 36-46 36-89s4-89-36-89c-39 0-36 45-36 89 0 43-3 85 36 89" id="aB"/><path fill="#3a414a" d="M128-127c34 4 56 21 59 58 7 91-148 94-172 28-4-9-6-17-7-26l51-5c1 24 16 35 40 36 23 0 39-12 38-36-1-31-31-36-65-34v-40c32 2 59-3 59-33 0-20-13-33-34-33s-33 13-35 32l-50-3c6-44 37-68 86-68 50 0 83 20 83 66 0 35-22 52-53 58" id="aC"/><g id="n"><use transform="matrix(0.07407407407407407,0,0,0.07407407407407407,0,0)" xlink:href="#aA"/><use transform="matrix(0.07407407407407407,0,0,0.07407407407407407,14.814814814814813,0)" xlink:href="#aB"/><use transform="matrix(0.07407407407407407,0,0,0.07407407407407407,29.629629629629626,0)" xlink:href="#aC"/></g><g id="o"><use transform="matrix(0.05555555555555555,0,0,0.05555555555555555,0,0)" xlink:href="#ar"/><use transform="matrix(0.05555555555555555,0,0,0.05555555555555555,11.11111111111111,0)" xlink:href="#an"/><use transform="matrix(0.05555555555555555,0,0,0.05555555555555555,22.22222222222222,0)" xlink:href="#ak"/><use transform="matrix(0.05555555555555555,0,0,0.05555555555555555,27.77777777777778,0)" xlink:href="#al"/><use transform="matrix(0.05555555555555555,0,0,0.05555555555555555,38.888888888888886,0)" xlink:href="#ag"/><use transform="matrix(0.05555555555555555,0,0,0.05555555555555555,50,0)" xlink:href="#aq"/><use transform="matrix(0.05555555555555555,0,0,0.05555555555555555,61.11111111111112,0)" xlink:href="#ak"/><use transform="matrix(0.05555555555555555,0,0,0.05555555555555555,66.66666666666667,0)" xlink:href="#aj"/><use transform="matrix(0.05555555555555555,0,0,0.05555555555555555,71.05555555555556,0)" xlink:href="#au"/><use transform="matrix(0.05555555555555555,0,0,0.05555555555555555,81.05555555555556,0)" xlink:href="#ar"/><use transform="matrix(0.05555555555555555,0,0,0.05555555555555555,92.16666666666667,0)" xlink:href="#ak"/><use transform="matrix(0.05555555555555555,0,0,0.05555555555555555,97.72222222222223,0)" xlink:href="#ag"/><use transform="matrix(0.05555555555555555,0,0,0.05555555555555555,108.83333333333334,0)" xlink:href="#ax"/><use transform="matrix(0.05555555555555555,0,0,0.05555555555555555,119.94444444444446,0)" xlink:href="#ap"/></g><path fill="#3a414a" d="M23 0v-37h61v-169l-59 37v-38l62-41h46v211h57V0H23" id="aD"/><g id="p"><use transform="matrix(0.07407407407407407,0,0,0.07407407407407407,0,0)" xlink:href="#aA"/><use transform="matrix(0.07407407407407407,0,0,0.07407407407407407,14.814814814814813,0)" xlink:href="#aB"/><use transform="matrix(0.07407407407407407,0,0,0.07407407407407407,29.629629629629626,0)" xlink:href="#aD"/></g><path fill="#333" d="M146-102V0H94v-102L6-248h54l60 105 60-105h54" id="aE"/><path fill="#333" d="M185-48c-13 30-37 53-82 52C43 2 14-33 14-96s30-98 90-98c62 0 83 45 84 108H66c0 31 8 55 39 56 18 0 30-7 34-22zm-45-69c5-46-57-63-70-21-2 6-4 13-4 21h74" id="aF"/><path fill="#333" d="M137-138c1-29-70-34-71-4 15 46 118 7 119 86 1 83-164 76-172 9l43-7c4 19 20 25 44 25 33 8 57-30 24-41C81-84 22-81 20-136c-2-80 154-74 161-7" id="aG"/><g id="q"><use transform="matrix(0.05555555555555555,0,0,0.05555555555555555,0,0)" xlink:href="#aE"/><use transform="matrix(0.05555555555555555,0,0,0.05555555555555555,12.222222222222221,0)" xlink:href="#aF"/><use transform="matrix(0.05555555555555555,0,0,0.05555555555555555,23.333333333333332,0)" xlink:href="#aG"/></g><path fill="#3a414a" d="M205 0l-28-72H64L36 0H1l101-248h38L239 0h-34zm-38-99l-47-123c-12 45-31 82-46 123h93" id="aH"/><g id="r"><use transform="matrix(0.05555555555555555,0,0,0.05555555555555555,0,0)" xlink:href="#aH"/><use transform="matrix(0.05555555555555555,0,0,0.05555555555555555,13.333333333333332,0)" xlink:href="#ac"/><use transform="matrix(0.05555555555555555,0,0,0.05555555555555555,19.944444444444443,0)" xlink:href="#ag"/></g><path fill="#3a414a" d="M179-190L93 31C79 59 56 82 12 73V49c39 6 53-20 64-50L1-190h34L92-34l54-156h33" id="aI"/><g id="s"><use transform="matrix(0.05555555555555555,0,0,0.05555555555555555,0,0)" xlink:href="#ak"/><use transform="matrix(0.05555555555555555,0,0,0.05555555555555555,5.555555555555555,0)" xlink:href="#al"/><use transform="matrix(0.05555555555555555,0,0,0.05555555555555555,16.666666666666664,0)" xlink:href="#ag"/><use transform="matrix(0.05555555555555555,0,0,0.05555555555555555,27.777777777777775,0)" xlink:href="#aI"/></g><g id="t"><use transform="matrix(0.05555555555555555,0,0,0.05555555555555555,0,0)" xlink:href="#an"/><use transform="matrix(0.05555555555555555,0,0,0.05555555555555555,11.11111111111111,0)" xlink:href="#aq"/><use transform="matrix(0.05555555555555555,0,0,0.05555555555555555,22.22222222222222,0)" xlink:href="#ax"/><use transform="matrix(0.05555555555555555,0,0,0.05555555555555555,33.33333333333333,0)" xlink:href="#ag"/><use transform="matrix(0.05555555555555555,0,0,0.05555555555555555,44.44444444444444,0)" xlink:href="#ac"/></g><g id="u"><use transform="matrix(0.05555555555555555,0,0,0.05555555555555555,0,0)" xlink:href="#ac"/><use transform="matrix(0.05555555555555555,0,0,0.05555555555555555,6.611111111111111,0)" xlink:href="#ar"/><use transform="matrix(0.05555555555555555,0,0,0.05555555555555555,17.72222222222222,0)" xlink:href="#ak"/><use transform="matrix(0.05555555555555555,0,0,0.05555555555555555,23.27777777777778,0)" xlink:href="#ag"/></g><g id="v"><use transform="matrix(0.05555555555555555,0,0,0.05555555555555555,0,0)" xlink:href="#af"/><use transform="matrix(0.05555555555555555,0,0,0.05555555555555555,4.388888888888888,0)" xlink:href="#aj"/><use transform="matrix(0.05555555555555555,0,0,0.05555555555555555,8.777777777777777,0)" xlink:href="#ah"/><use transform="matrix(0.05555555555555555,0,0,0.05555555555555555,25.388888888888886,0)" xlink:href="#aj"/><use transform="matrix(0.05555555555555555,0,0,0.05555555555555555,29.777777777777775,0)" xlink:href="#ak"/><use transform="matrix(0.05555555555555555,0,0,0.05555555555555555,35.33333333333333,0)" xlink:href="#ap"/></g><path fill="#3a414a" d="M182-182c0 78-84 86-111 141h115V0H12c-6-101 99-100 120-180 1-22-12-31-33-32-23 0-32 14-35 34l-49-3c5-45 32-70 84-70 51 0 83 22 83 69" id="aJ"/><path fill="#3a414a" d="M99-251c69 0 84 53 88 123 5 99-61 162-144 118-15-8-21-25-26-45l46-6c4 31 50 33 63 7 7-15 12-36 12-60-9 18-29 28-54 28-48 0-72-32-72-82 0-55 31-83 87-83zm-1 128c24 0 37-16 37-39 0-27-10-51-37-51-25 0-35 19-35 45 0 25 10 45 35 45" id="aK"/><g id="w"><use transform="matrix(0.07407407407407407,0,0,0.07407407407407407,0,0)" xlink:href="#aA"/><use transform="matrix(0.07407407407407407,0,0,0.07407407407407407,14.814814814814813,0)" xlink:href="#aJ"/><use transform="matrix(0.07407407407407407,0,0,0.07407407407407407,29.629629629629626,0)" xlink:href="#aK"/></g><path fill="#3a414a" d="M30-248c118-7 216 8 213 122C240-48 200 0 122 0H30v-248zM63-27c89 8 146-16 146-99s-60-101-146-95v194" id="aL"/><g id="x"><use transform="matrix(0.05555555555555555,0,0,0.05555555555555555,0,0)" xlink:href="#aL"/><use transform="matrix(0.05555555555555555,0,0,0.05555555555555555,14.388888888888888,0)" xlink:href="#ad"/><use transform="matrix(0.05555555555555555,0,0,0.05555555555555555,25.5,0)" xlink:href="#ag"/><use transform="matrix(0.05555555555555555,0,0,0.05555555555555555,36.611111111111114,0)" xlink:href="#ao"/></g><g id="y"><use transform="matrix(0.05555555555555555,0,0,0.05555555555555555,0,0)" xlink:href="#ac"/><use transform="matrix(0.05555555555555555,0,0,0.05555555555555555,6.611111111111111,0)" xlink:href="#ag"/><use transform="matrix(0.05555555555555555,0,0,0.05555555555555555,17.72222222222222,0)" xlink:href="#ao"/><use transform="matrix(0.05555555555555555,0,0,0.05555555555555555,27.72222222222222,0)" xlink:href="#ad"/><use transform="matrix(0.05555555555555555,0,0,0.05555555555555555,38.83333333333333,0)" xlink:href="#an"/><use transform="matrix(0.05555555555555555,0,0,0.05555555555555555,49.94444444444444,0)" xlink:href="#ac"/><use transform="matrix(0.05555555555555555,0,0,0.05555555555555555,56.55555555555556,0)" xlink:href="#au"/><use transform="matrix(0.05555555555555555,0,0,0.05555555555555555,66.55555555555556,0)" xlink:href="#ag"/></g><path fill="#3a414a" d="M141 0L90-78 38 0H4l68-98-65-92h35l48 74 47-74h35l-64 92 68 98h-35" id="aM"/><g id="z"><use transform="matrix(0.05555555555555555,0,0,0.05555555555555555,0,0)" xlink:href="#ag"/><use transform="matrix(0.05555555555555555,0,0,0.05555555555555555,11.11111111111111,0)" xlink:href="#aM"/><use transform="matrix(0.05555555555555555,0,0,0.05555555555555555,21.11111111111111,0)" xlink:href="#aj"/><use transform="matrix(0.05555555555555555,0,0,0.05555555555555555,25.5,0)" xlink:href="#ao"/><use transform="matrix(0.05555555555555555,0,0,0.05555555555555555,35.5,0)" xlink:href="#ak"/><use transform="matrix(0.05555555555555555,0,0,0.05555555555555555,41.05555555555556,0)" xlink:href="#ap"/></g><g id="A"><use transform="matrix(0.07407407407407407,0,0,0.07407407407407407,0,0)" xlink:href="#aA"/><use transform="matrix(0.07407407407407407,0,0,0.07407407407407407,14.814814814814813,0)" xlink:href="#aB"/><use transform="matrix(0.07407407407407407,0,0,0.07407407407407407,29.629629629629626,0)" xlink:href="#aA"/></g><path fill="#3a414a" d="M47-170H22l-4-78h33" id="aN"/><g id="B"><use transform="matrix(0.05555555555555555,0,0,0.05555555555555555,0,0)" xlink:href="#ae"/><use transform="matrix(0.05555555555555555,0,0,0.05555555555555555,11.11111111111111,0)" xlink:href="#ad"/><use transform="matrix(0.05555555555555555,0,0,0.05555555555555555,22.22222222222222,0)" xlink:href="#ax"/><use transform="matrix(0.05555555555555555,0,0,0.05555555555555555,33.33333333333333,0)" xlink:href="#aI"/><use transform="matrix(0.05555555555555555,0,0,0.05555555555555555,43.33333333333333,0)" xlink:href="#aN"/><use transform="matrix(0.05555555555555555,0,0,0.05555555555555555,47.11111111111111,0)" xlink:href="#ao"/></g><g id="C"><use transform="matrix(0.05555555555555555,0,0,0.05555555555555555,0,0)" xlink:href="#ao"/><use transform="matrix(0.05555555555555555,0,0,0.05555555555555555,10,0)" xlink:href="#aI"/><use transform="matrix(0.05555555555555555,0,0,0.05555555555555555,20,0)" xlink:href="#aq"/><use transform="matrix(0.05555555555555555,0,0,0.05555555555555555,31.11111111111111,0)" xlink:href="#ak"/><use transform="matrix(0.05555555555555555,0,0,0.05555555555555555,36.666666666666664,0)" xlink:href="#ar"/><use transform="matrix(0.05555555555555555,0,0,0.05555555555555555,47.77777777777777,0)" xlink:href="#aM"/></g><g id="D"><use transform="matrix(0.05555555555555555,0,0,0.05555555555555555,0,0)" xlink:href="#au"/><use transform="matrix(0.05555555555555555,0,0,0.05555555555555555,10,0)" xlink:href="#ad"/><use transform="matrix(0.05555555555555555,0,0,0.05555555555555555,21.11111111111111,0)" xlink:href="#ac"/><use transform="matrix(0.05555555555555555,0,0,0.05555555555555555,27.72222222222222,0)" xlink:href="#ac"/><use transform="matrix(0.05555555555555555,0,0,0.05555555555555555,34.33333333333333,0)" xlink:href="#ag"/><use transform="matrix(0.05555555555555555,0,0,0.05555555555555555,45.44444444444444,0)" xlink:href="#au"/><use transform="matrix(0.05555555555555555,0,0,0.05555555555555555,55.44444444444444,0)" xlink:href="#ak"/><use transform="matrix(0.05555555555555555,0,0,0.05555555555555555,61,0)" xlink:href="#ap"/></g><g id="E"><use transform="matrix(0.07407407407407407,0,0,0.07407407407407407,0,0)" xlink:href="#aA"/><use transform="matrix(0.07407407407407407,0,0,0.07407407407407407,14.814814814814813,0)" xlink:href="#aB"/><use transform="matrix(0.07407407407407407,0,0,0.07407407407407407,29.629629629629626,0)" xlink:href="#aB"/></g><g id="F"><use transform="matrix(0.05555555555555555,0,0,0.05555555555555555,0,0)" xlink:href="#at"/><use transform="matrix(0.05555555555555555,0,0,0.05555555555555555,10,0)" xlink:href="#ar"/><use transform="matrix(0.05555555555555555,0,0,0.05555555555555555,21.11111111111111,0)" xlink:href="#af"/><use transform="matrix(0.05555555555555555,0,0,0.05555555555555555,25.5,0)" xlink:href="#an"/><use transform="matrix(0.05555555555555555,0,0,0.05555555555555555,36.611111111111114,0)" xlink:href="#ag"/><use transform="matrix(0.05555555555555555,0,0,0.05555555555555555,47.72222222222223,0)" xlink:href="#ao"/></g><g id="G"><use transform="matrix(0.05555555555555555,0,0,0.05555555555555555,0,0)" xlink:href="#at"/><use transform="matrix(0.05555555555555555,0,0,0.05555555555555555,10,0)" xlink:href="#ar"/><use transform="matrix(0.05555555555555555,0,0,0.05555555555555555,21.11111111111111,0)" xlink:href="#af"/><use transform="matrix(0.05555555555555555,0,0,0.05555555555555555,25.5,0)" xlink:href="#aj"/><use transform="matrix(0.05555555555555555,0,0,0.05555555555555555,29.888888888888886,0)" xlink:href="#ax"/><use transform="matrix(0.05555555555555555,0,0,0.05555555555555555,41,0)" xlink:href="#ap"/></g><g id="H"><use transform="matrix(0.07407407407407407,0,0,0.07407407407407407,0,0)" xlink:href="#aA"/><use transform="matrix(0.07407407407407407,0,0,0.07407407407407407,14.814814814814813,0)" xlink:href="#aJ"/><use transform="matrix(0.07407407407407407,0,0,0.07407407407407407,29.629629629629626,0)" xlink:href="#aJ"/></g><g id="I"><use transform="matrix(0.05555555555555555,0,0,0.05555555555555555,0,0)" xlink:href="#ao"/><use transform="matrix(0.05555555555555555,0,0,0.05555555555555555,10,0)" xlink:href="#ag"/><use transform="matrix(0.05555555555555555,0,0,0.05555555555555555,21.11111111111111,0)" xlink:href="#ac"/><use transform="matrix(0.05555555555555555,0,0,0.05555555555555555,27.72222222222222,0)" xlink:href="#at"/><use transform="matrix(0.05555555555555555,0,0,0.05555555555555555,37.72222222222222,0)" xlink:href="#aj"/><use transform="matrix(0.05555555555555555,0,0,0.05555555555555555,42.11111111111111,0)" xlink:href="#au"/><use transform="matrix(0.05555555555555555,0,0,0.05555555555555555,52.11111111111111,0)" xlink:href="#ag"/></g><g id="J"><use transform="matrix(0.05555555555555555,0,0,0.05555555555555555,0,0)" xlink:href="#an"/><use transform="matrix(0.05555555555555555,0,0,0.05555555555555555,11.11111111111111,0)" xlink:href="#as"/><use transform="matrix(0.05555555555555555,0,0,0.05555555555555555,22.22222222222222,0)" xlink:href="#ap"/></g><path fill="#3a414a" d="M139-81c0-46-55-55-73-27H18l9-140h149v37H72l-4 63c44-38 133-4 122 66C201 21 21 35 11-62l49-4c5 18 15 30 39 30 26 0 40-18 40-45" id="aO"/><g id="K"><use transform="matrix(0.07407407407407408,0,0,0.07407407407407408,0,0)" xlink:href="#aO"/><use transform="matrix(0.07407407407407408,0,0,0.07407407407407408,14.814814814814817,0)" xlink:href="#aB"/><use transform="matrix(0.07407407407407408,0,0,0.07407407407407408,29.629629629629633,0)" xlink:href="#aC"/></g><g id="L"><use transform="matrix(0.07407407407407408,0,0,0.07407407407407408,0,0)" xlink:href="#aO"/><use transform="matrix(0.07407407407407408,0,0,0.07407407407407408,14.814814814814817,0)" xlink:href="#aB"/><use transform="matrix(0.07407407407407408,0,0,0.07407407407407408,29.629629629629633,0)" xlink:href="#aB"/></g><g id="M"><use transform="matrix(0.05555555555555555,0,0,0.05555555555555555,0,0)" xlink:href="#an"/><use transform="matrix(0.05555555555555555,0,0,0.05555555555555555,11.11111111111111,0)" xlink:href="#as"/><use transform="matrix(0.05555555555555555,0,0,0.05555555555555555,22.22222222222222,0)" xlink:href="#ao"/><use transform="matrix(0.05555555555555555,0,0,0.05555555555555555,32.22222222222222,0)" xlink:href="#ak"/><use transform="matrix(0.05555555555555555,0,0,0.05555555555555555,37.77777777777778,0)" xlink:href="#ac"/><use transform="matrix(0.05555555555555555,0,0,0.05555555555555555,44.388888888888886,0)" xlink:href="#ag"/><use transform="matrix(0.05555555555555555,0,0,0.05555555555555555,55.5,0)" xlink:href="#ar"/><use transform="matrix(0.05555555555555555,0,0,0.05555555555555555,66.61111111111111,0)" xlink:href="#ah"/></g><g id="N"><use transform="matrix(0.05555555555555555,0,0,0.05555555555555555,0,0)" xlink:href="#ao"/><use transform="matrix(0.05555555555555555,0,0,0.05555555555555555,10,0)" xlink:href="#ag"/><use transform="matrix(0.05555555555555555,0,0,0.05555555555555555,21.11111111111111,0)" xlink:href="#ac"/><use transform="matrix(0.05555555555555555,0,0,0.05555555555555555,27.72222222222222,0)" xlink:href="#at"/><use transform="matrix(0.05555555555555555,0,0,0.05555555555555555,37.72222222222222,0)" xlink:href="#aj"/><use transform="matrix(0.05555555555555555,0,0,0.05555555555555555,42.11111111111111,0)" xlink:href="#au"/><use transform="matrix(0.05555555555555555,0,0,0.05555555555555555,52.11111111111111,0)" xlink:href="#ag"/></g><path fill="#3a414a" d="M177-190C167-65 218 103 67 71c-23-6-38-20-44-43l32-5c15 47 100 32 89-28v-30C133-14 115 1 83 1 29 1 15-40 15-95c0-56 16-97 71-98 29-1 48 16 59 35 1-10 0-23 2-32h30zM94-22c36 0 50-32 50-73 0-42-14-75-50-75-39 0-46 34-46 75s6 73 46 73" id="aP"/><g id="O"><use transform="matrix(0.05555555555555555,0,0,0.05555555555555555,0,0)" xlink:href="#ac"/><use transform="matrix(0.05555555555555555,0,0,0.05555555555555555,6.611111111111111,0)" xlink:href="#ag"/><use transform="matrix(0.05555555555555555,0,0,0.05555555555555555,17.72222222222222,0)" xlink:href="#ao"/><use transform="matrix(0.05555555555555555,0,0,0.05555555555555555,27.72222222222222,0)" xlink:href="#as"/><use transform="matrix(0.05555555555555555,0,0,0.05555555555555555,38.83333333333333,0)" xlink:href="#ad"/><use transform="matrix(0.05555555555555555,0,0,0.05555555555555555,49.94444444444444,0)" xlink:href="#aq"/><use transform="matrix(0.05555555555555555,0,0,0.05555555555555555,61.05555555555555,0)" xlink:href="#ax"/><use transform="matrix(0.05555555555555555,0,0,0.05555555555555555,72.16666666666667,0)" xlink:href="#aj"/><use transform="matrix(0.05555555555555555,0,0,0.05555555555555555,76.55555555555556,0)" xlink:href="#aq"/><use transform="matrix(0.05555555555555555,0,0,0.05555555555555555,87.66666666666667,0)" xlink:href="#aP"/></g><g id="P"><use transform="matrix(0.05555555555555555,0,0,0.05555555555555555,0,0)" xlink:href="#ak"/><use transform="matrix(0.05555555555555555,0,0,0.05555555555555555,5.555555555555555,0)" xlink:href="#aj"/><use transform="matrix(0.05555555555555555,0,0,0.05555555555555555,9.944444444444443,0)" xlink:href="#ah"/><use transform="matrix(0.05555555555555555,0,0,0.05555555555555555,26.555555555555554,0)" xlink:href="#ag"/><use transform="matrix(0.05555555555555555,0,0,0.05555555555555555,37.666666666666664,0)" xlink:href="#ap"/></g><g id="Q"><use transform="matrix(0.04938271604938272,0,0,0.04938271604938272,0,0)" xlink:href="#aE"/><use transform="matrix(0.04938271604938272,0,0,0.04938271604938272,10.864197530864198,0)" xlink:href="#aF"/><use transform="matrix(0.04938271604938272,0,0,0.04938271604938272,20.74074074074074,0)" xlink:href="#aG"/></g><g id="R"><use transform="matrix(0.04938271604938272,0,0,0.04938271604938272,0,0)" xlink:href="#ay"/><use transform="matrix(0.04938271604938272,0,0,0.04938271604938272,12.790123456790125,0)" xlink:href="#az"/></g><g id="S"><use transform="matrix(0.07407407407407408,0,0,0.07407407407407408,0,0)" xlink:href="#aO"/><use transform="matrix(0.07407407407407408,0,0,0.07407407407407408,14.814814814814817,0)" xlink:href="#aB"/><use transform="matrix(0.07407407407407408,0,0,0.07407407407407408,29.629629629629633,0)" xlink:href="#aA"/></g><g id="T"><use transform="matrix(0.07407407407407408,0,0,0.07407407407407408,0,0)" xlink:href="#aO"/><use transform="matrix(0.07407407407407408,0,0,0.07407407407407408,14.814814814814817,0)" xlink:href="#aB"/><use transform="matrix(0.07407407407407408,0,0,0.07407407407407408,29.629629629629633,0)" xlink:href="#aJ"/></g><g id="U"><use transform="matrix(0.05555555555555555,0,0,0.05555555555555555,0,0)" xlink:href="#aj"/><use transform="matrix(0.05555555555555555,0,0,0.05555555555555555,4.388888888888888,0)" xlink:href="#aq"/></g><g id="V"><use transform="matrix(0.05555555555555555,0,0,0.05555555555555555,0,0)" xlink:href="#ad"/><use transform="matrix(0.05555555555555555,0,0,0.05555555555555555,11.11111111111111,0)" xlink:href="#an"/><use transform="matrix(0.05555555555555555,0,0,0.05555555555555555,22.22222222222222,0)" xlink:href="#ac"/></g><g id="W"><use transform="matrix(0.05555555555555555,0,0,0.05555555555555555,0,0)" xlink:href="#ad"/><use transform="matrix(0.05555555555555555,0,0,0.05555555555555555,11.11111111111111,0)" xlink:href="#an"/><use transform="matrix(0.05555555555555555,0,0,0.05555555555555555,22.22222222222222,0)" xlink:href="#ac"/></g><g id="X"><use transform="matrix(0.05555555555555555,0,0,0.05555555555555555,0,0)" xlink:href="#ac"/><use transform="matrix(0.05555555555555555,0,0,0.05555555555555555,6.611111111111111,0)" xlink:href="#ag"/><use transform="matrix(0.05555555555555555,0,0,0.05555555555555555,17.72222222222222,0)" xlink:href="#ao"/><use transform="matrix(0.05555555555555555,0,0,0.05555555555555555,27.72222222222222,0)" xlink:href="#as"/><use transform="matrix(0.05555555555555555,0,0,0.05555555555555555,38.83333333333333,0)" xlink:href="#ad"/><use transform="matrix(0.05555555555555555,0,0,0.05555555555555555,49.94444444444444,0)" xlink:href="#aq"/><use transform="matrix(0.05555555555555555,0,0,0.05555555555555555,61.05555555555555,0)" xlink:href="#ax"/><use transform="matrix(0.05555555555555555,0,0,0.05555555555555555,72.16666666666667,0)" xlink:href="#aj"/><use transform="matrix(0.05555555555555555,0,0,0.05555555555555555,76.55555555555556,0)" xlink:href="#aq"/><use transform="matrix(0.05555555555555555,0,0,0.05555555555555555,87.66666666666667,0)" xlink:href="#aP"/></g><path fill="#3a414a" d="M67-125c0 54 23 88 75 88 28 0 53-7 68-21v-34h-60v-39h108v91C232-14 192 4 140 4 58 4 20-42 15-125 8-236 126-280 215-234c19 10 29 26 37 47l-47 15c-11-23-29-39-63-39-53 1-75 33-75 86" id="aQ"/><path fill="#3a414a" d="M133-34C117-15 103 5 69 4 32 3 11-16 11-54c-1-60 55-63 116-61 1-26-3-47-28-47-18 1-26 9-28 27l-52-2c7-38 36-58 82-57s74 22 75 68l1 82c-1 14 12 18 25 15v27c-30 8-71 5-69-32zm-48 3c29 0 43-24 42-57-32 0-66-3-65 30 0 17 8 27 23 27" id="aR"/><path fill="#3a414a" d="M115-3C79 11 28 4 28-45v-112H4v-33h27l15-45h31v45h36v33H77v99c-1 23 16 31 38 25v30" id="aS"/><path fill="#3a414a" d="M185-48c-13 30-37 53-82 52C43 2 14-33 14-96s30-98 90-98c62 0 83 45 84 108H66c0 31 8 55 39 56 18 0 30-7 34-22zm-45-69c5-46-57-63-70-21-2 6-4 13-4 21h74" id="aT"/><path fill="#3a414a" d="M231 0h-52l-39-155L100 0H48L-1-190h46L77-45c9-52 24-97 36-145h53l37 145 32-145h46" id="aU"/><path fill="#3a414a" d="M123 10C108 53 80 86 19 72V37c35 8 53-11 59-39L3-190h52l48 148c12-52 28-100 44-148h51" id="aV"/><g id="Y"><use transform="matrix(0.055555555555555546,0,0,0.055555555555555546,0,0)" xlink:href="#aQ"/><use transform="matrix(0.055555555555555546,0,0,0.055555555555555546,15.555555555555554,0)" xlink:href="#aR"/><use transform="matrix(0.055555555555555546,0,0,0.055555555555555546,26.666666666666664,0)" xlink:href="#aS"/><use transform="matrix(0.055555555555555546,0,0,0.055555555555555546,33.27777777777777,0)" xlink:href="#aT"/><use transform="matrix(0.055555555555555546,0,0,0.055555555555555546,44.38888888888888,0)" xlink:href="#aU"/><use transform="matrix(0.055555555555555546,0,0,0.055555555555555546,59.944444444444436,0)" xlink:href="#aR"/><use transform="matrix(0.055555555555555546,0,0,0.055555555555555546,71.05555555555554,0)" xlink:href="#aV"/></g><path fill="#3a414a" d="M230 0l2-204L168 0h-37L68-204 70 0H24v-248h70l56 185 57-185h69V0h-46" id="aW"/><path fill="#3a414a" d="M135-194c87-1 58 113 63 194h-50c-7-57 23-157-34-157-59 0-34 97-39 157H25l-1-190h47c2 12-1 28 3 38 12-26 28-41 61-42" id="aX"/><path fill="#3a414a" d="M195-6C206 82 75 100 31 46c-4-6-6-13-8-21l49-6c3 16 16 24 34 25 40 0 42-37 40-79-11 22-30 35-61 35-53 0-70-43-70-97 0-56 18-96 73-97 30 0 46 14 59 34l2-30h47zm-90-29c32 0 41-27 41-63 0-35-9-62-40-62-32 0-39 29-40 63 0 36 9 62 39 62" id="aY"/><path fill="#3a414a" d="M88-194c31-1 46 15 58 34l-1-101h50l1 261h-48c-2-10 0-23-3-31C134-8 116 4 84 4 32 4 16-41 15-95c0-56 19-97 73-99zm17 164c33 0 40-30 41-66 1-37-9-64-41-64s-38 30-39 65c0 43 13 65 39 65" id="aZ"/><g id="Z"><use transform="matrix(0.055555555555555546,0,0,0.055555555555555546,0,0)" xlink:href="#aW"/><use transform="matrix(0.055555555555555546,0,0,0.055555555555555546,16.611111111111107,0)" xlink:href="#aR"/><use transform="matrix(0.055555555555555546,0,0,0.055555555555555546,27.722222222222214,0)" xlink:href="#aX"/><use transform="matrix(0.055555555555555546,0,0,0.055555555555555546,39.88888888888888,0)" xlink:href="#aR"/><use transform="matrix(0.055555555555555546,0,0,0.055555555555555546,50.999999999999986,0)" xlink:href="#aY"/><use transform="matrix(0.055555555555555546,0,0,0.055555555555555546,63.16666666666666,0)" xlink:href="#aT"/><use transform="matrix(0.055555555555555546,0,0,0.055555555555555546,74.27777777777776,0)" xlink:href="#aZ"/></g><path fill="#3a414a" d="M24 0v-248h195v40H76v63h132v40H76v65h150V0H24" id="ba"/><path fill="#3a414a" d="M135-150c-39-12-60 13-60 57V0H25l-1-190h47c2 13-1 29 3 40 6-28 27-53 61-41v41" id="bb"/><path fill="#3a414a" d="M110-194c64 0 96 36 96 99 0 64-35 99-97 99-61 0-95-36-95-99 0-62 34-99 96-99zm-1 164c35 0 45-28 45-65 0-40-10-65-43-65-34 0-45 26-45 65 0 36 10 65 43 65" id="bc"/><path fill="#3a414a" d="M137-138c1-29-70-34-71-4 15 46 118 7 119 86 1 83-164 76-172 9l43-7c4 19 20 25 44 25 33 8 57-30 24-41C81-84 22-81 20-136c-2-80 154-74 161-7" id="bd"/><g id="aa"><use transform="matrix(0.055555555555555546,0,0,0.055555555555555546,0,0)" xlink:href="#ba"/><use transform="matrix(0.055555555555555546,0,0,0.055555555555555546,13.33333333333333,0)" xlink:href="#bb"/><use transform="matrix(0.055555555555555546,0,0,0.055555555555555546,21.111111111111107,0)" xlink:href="#bb"/><use transform="matrix(0.055555555555555546,0,0,0.055555555555555546,28.888888888888882,0)" xlink:href="#bc"/><use transform="matrix(0.055555555555555546,0,0,0.055555555555555546,41.05555555555555,0)" xlink:href="#bb"/><use transform="matrix(0.055555555555555546,0,0,0.055555555555555546,48.83333333333333,0)" xlink:href="#bd"/></g></defs></g></svg>